<?xml version="1.0" encoding="utf-8"?>
<!-- Generator: Adobe Illustrator 23.0.6, SVG Export Plug-In . SVG Version: 6.00 Build 0)  -->
<svg version="1.1" id="Modo_de_aislamiento" xmlns="http://www.w3.org/2000/svg" xmlns:xlink="http://www.w3.org/1999/xlink"
	 x="0px" y="0px" viewBox="0 0 198.425 198.425" style="enable-background:new 0 0 198.425 198.425;" xml:space="preserve">
<style type="text/css">
	.st0{fill-rule:evenodd;clip-rule:evenodd;fill:#E73036;}
</style>
<g>
	<path class="st0" d="M35.859,97.629h16.298v21.816h-5.409l-0.832-5.04c-2.081,2.448-5.063,6.12-12.137,6.12
		c-9.432,0-17.962-6.984-17.962-21.168c0-11.088,5.964-21.528,19.072-21.456c11.929,0,16.714,8.064,17.13,13.608h-8.184
		c0-1.512-2.774-6.624-8.53-6.624s-11.166,4.176-11.166,14.544c0,11.088,5.826,13.896,11.374,13.896c1.803,0,7.767-0.72,9.432-8.856
		h-9.085V97.629L35.859,97.629z"/>
	<path class="st0" d="M78.442,106.125v7.704c0,3.528,0.763,4.32,1.664,4.68v1.152h-8.184c-0.416-1.368-0.555-1.8-0.694-3.528
		c-1.734,1.872-4.161,4.32-9.363,4.32c-4.369,0-8.808-2.52-8.808-8.712c0-5.832,3.606-8.856,8.461-9.576l6.797-1.08
		c1.248-0.144,2.705-0.648,2.705-2.376c0-3.312-3.052-3.456-4.993-3.456c-3.814,0-4.508,2.376-4.716,4.176h-7.282
		c0.832-9.216,7.005-10.512,12.9-10.512c4.092,0,11.513,1.296,11.513,8.712V106.125L78.442,106.125z M71.021,107.421v-2.304
		c-0.763,0.576-2.011,1.08-5.201,1.584c-2.774,0.576-5.132,1.296-5.132,4.536c0,2.736,2.081,3.6,3.537,3.6
		c3.329,0,6.797-2.232,6.797-5.904V107.421L71.021,107.421z"/>
	<path class="st0" d="M80.661,119.445h7.421v-3.744h0.139c1.803,3.384,5.201,4.536,8.322,4.536c8.6,0,12.206-7.92,12.206-16.128
		c0-10.368-5.687-15.408-11.998-15.408c-4.924,0-7.213,2.736-8.392,4.68H88.22v-14.4h-7.559V119.445L80.661,119.445z
		 M87.943,104.829c0-4.464,1.318-9.36,6.519-9.36c4.785,0,6.45,4.464,6.45,9.216c0,3.528-1.387,9.072-6.242,9.072
		C89.815,113.757,87.665,109.365,87.943,104.829L87.943,104.829z"/>
	<path class="st0" d="M109.65,89.421h7.282v5.256h0.069c1.595-3.096,3.329-5.976,7.976-5.976c0.485,0,0.971,0,1.456,0.072v7.992
		c-0.694-0.072-1.456-0.072-2.219-0.072c-5.895,0-7.005,3.816-7.005,7.128v15.624h-7.559V89.421L109.65,89.421z"/>
	<path class="st0" d="M127.959,89.421h7.629v30.024h-7.629V89.421L127.959,89.421z M127.959,78.549h7.629v7.344h-7.629V78.549
		L127.959,78.549z"/>
	<path class="st0" d="M164.439,106.557v-1.368c0-13.68-7.906-16.488-13.593-16.488c-12.692,0-13.87,11.52-13.87,15.12
		c0,12.384,6.242,16.416,14.425,16.416c4.924,0,10.68-2.376,12.691-9.576h-7.837c-0.555,2.16-2.774,3.24-4.855,3.24
		c-6.172,0-6.588-5.04-6.797-7.344H164.439L164.439,106.557z M144.812,101.445c0.416-3.96,2.358-6.264,5.895-6.264
		c2.497,0,5.479,1.44,5.895,6.264H144.812L144.812,101.445z"/>
	<polygon class="st0" points="165.618,78.981 173.177,78.981 173.177,119.445 165.618,119.445 165.618,78.981 	"/>
	<path class="st0" d="M178.795,81.717c0.347,0,0.555,0,0.555,0.432c0,0.504-0.208,0.648-0.624,0.648h-0.832v-1.08H178.795
		L178.795,81.717z M176.991,80.925v4.464h0.902v-1.872h0.416l1.04,1.872h1.11l-1.11-1.944c0.555-0.072,1.04-0.36,1.04-1.152
		c0-1.08-0.694-1.368-1.803-1.368H176.991L176.991,80.925z M178.378,78.981c-2.081,0.144-3.884,1.656-3.884,4.176
		c0,2.664,1.942,4.176,4.092,4.176c2.15,0,4.022-1.512,4.022-4.176C182.609,80.637,180.944,78.981,178.378,78.981L178.378,78.981z
		 M178.725,79.989c1.456,0.072,2.705,1.296,2.705,3.168c0,1.944-1.318,3.24-2.843,3.24l0,0c-1.595,0-2.913-1.296-2.913-3.24
		C175.674,81.285,176.853,80.061,178.725,79.989L178.725,79.989z"/>
</g>
</svg>
