<?xml version="1.0" encoding="utf-8"?>
<!-- Generator: Adobe Illustrator 23.0.6, SVG Export Plug-In . SVG Version: 6.00 Build 0)  -->
<svg version="1.1" id="Modo_de_aislamiento" xmlns="http://www.w3.org/2000/svg" xmlns:xlink="http://www.w3.org/1999/xlink"
	 x="0px" y="0px" viewBox="0 0 198.425 198.425" style="enable-background:new 0 0 198.425 198.425;" xml:space="preserve">
<style type="text/css">
	.st0{fill:#E52118;}
	.st1{fill:#010202;}
</style>
<g>
	<g>
		<path class="st0" d="M31.135,81.196c-3.198,0-6.206,0.798-8.85,2.192c-2.116,4.569,1.069,9.539,1.069,9.539
			c4.92,7.285,18.329,5.219,18.329,5.219s-9.282,4.042-16.357,1.305c-4.446-1.72-7.826-7.853-6.948-13.312
			c-1.04,0.943-1.979,1.993-2.789,3.144c-0.15,5.396,1.583,11.263,8.075,15.024c8.589,4.976,22.095-1.066,22.095-1.066
			s-5.864,7.641-17.238,7.227c-6.603-0.241-14.217-4.739-15.745-15.14c-0.415,1.562-0.657,3.193-0.657,4.885
			c0,10.502,8.514,19.016,19.017,19.016s19.016-8.514,19.016-19.016C50.152,89.71,41.638,81.196,31.135,81.196z"/>
	</g>
	<g>
		<path class="st1" d="M69.642,86.448c1.31,0,2.507,0.116,3.588,0.349c1.081,0.233,2.008,0.613,2.781,1.137
			c0.773,0.528,1.37,1.232,1.797,2.105c0.424,0.877,0.635,1.957,0.635,3.243c0,1.392-0.314,2.548-0.946,3.475
			c-0.632,0.927-1.562,1.687-2.799,2.278c1.7,0.49,2.966,1.345,3.805,2.567c0.836,1.225,1.254,2.699,1.254,4.421
			c0,1.392-0.27,2.595-0.811,3.61c-0.54,1.018-1.269,1.847-2.181,2.492c-0.914,0.644-1.957,1.119-3.129,1.43
			c-1.169,0.308-2.372,0.462-3.607,0.462h-13.36V86.448H69.642z M68.869,97.608c1.081,0,1.97-0.258,2.664-0.773
			s1.043-1.351,1.043-2.51c0-0.644-0.116-1.172-0.349-1.584c-0.233-0.412-0.54-0.732-0.927-0.965s-0.829-0.393-1.332-0.481
			c-0.503-0.091-1.024-0.135-1.565-0.135H62.73v6.447H68.869z M69.215,109.305c0.594,0,1.159-0.06,1.7-0.173
			c0.54-0.116,1.018-0.311,1.43-0.581c0.412-0.27,0.738-0.638,0.983-1.1s0.368-1.056,0.368-1.775c0-1.417-0.399-2.426-1.197-3.032
			c-0.798-0.603-1.854-0.908-3.167-0.908H62.73v7.569H69.215z"/>
		<path class="st1" d="M104.467,86.448v5.096H89.911v5.907h13.36v4.713h-13.36v6.755h14.865v5.096H83.85V86.448H104.467z"/>
		<path class="st1" d="M113.501,107.219c0.336,0.644,0.779,1.166,1.332,1.565c0.553,0.399,1.203,0.694,1.951,0.889
			c0.745,0.192,1.518,0.289,2.316,0.289c0.54,0,1.122-0.044,1.738-0.135c0.619-0.091,1.197-0.264,1.738-0.522
			c0.54-0.258,0.99-0.613,1.351-1.062c0.361-0.449,0.54-1.024,0.54-1.719c0-0.745-0.239-1.351-0.713-1.813
			c-0.478-0.465-1.1-0.851-1.873-1.159c-0.773-0.308-1.646-0.578-2.627-0.811c-0.977-0.233-1.967-0.49-2.972-0.773
			c-1.031-0.258-2.033-0.572-3.01-0.946c-0.98-0.374-1.854-0.855-2.627-1.448c-0.773-0.591-1.395-1.332-1.873-2.218
			c-0.478-0.889-0.713-1.964-0.713-3.224c0-1.417,0.302-2.646,0.908-3.689c0.603-1.043,1.395-1.91,2.372-2.605
			c0.98-0.694,2.086-1.21,3.321-1.546c1.235-0.333,2.473-0.503,3.708-0.503c1.439,0,2.825,0.163,4.151,0.484
			c1.326,0.324,2.501,0.842,3.532,1.565c1.031,0.72,1.847,1.64,2.451,2.759c0.606,1.122,0.908,2.479,0.908,4.075h-5.869
			c-0.05-0.823-0.223-1.508-0.522-2.049c-0.295-0.54-0.688-0.965-1.175-1.272c-0.49-0.308-1.049-0.528-1.681-0.657
			c-0.632-0.129-1.32-0.192-2.064-0.192c-0.49,0-0.98,0.05-1.467,0.154c-0.49,0.104-0.933,0.283-1.332,0.54
			c-0.399,0.258-0.729,0.578-0.987,0.965c-0.258,0.386-0.383,0.877-0.383,1.467c0,0.54,0.101,0.977,0.308,1.313
			c0.204,0.333,0.61,0.644,1.216,0.927c0.603,0.283,1.442,0.566,2.51,0.848s2.463,0.644,4.188,1.081
			c0.515,0.104,1.229,0.289,2.143,0.559c0.914,0.27,1.819,0.704,2.721,1.294s1.681,1.382,2.338,2.375
			c0.657,0.99,0.983,2.256,0.983,3.802c0,1.26-0.245,2.432-0.732,3.513c-0.49,1.081-1.219,2.014-2.184,2.799
			c-0.965,0.785-2.162,1.398-3.591,1.835c-1.426,0.437-3.082,0.657-4.961,0.657c-1.518,0-2.991-0.189-4.421-0.562
			c-1.426-0.371-2.69-0.958-3.783-1.756c-1.093-0.795-1.964-1.813-2.605-3.048c-0.644-1.238-0.952-2.705-0.927-4.402h5.869
			C113.001,105.793,113.167,106.578,113.501,107.219z"/>
		<path class="st1" d="M131.765,91.544v-5.096h22.584v5.096h-8.26v22.471h-6.064V91.544H131.765z"/>
		<path class="st1" d="M178.134,86.448v5.096h-14.557v5.907h13.36v4.713h-13.36v6.755h14.865v5.096h-20.925V86.448H178.134z"/>
		<g>
			<path class="st1" d="M183.099,107.609c-1.767,0-3.208,1.441-3.208,3.208c0,1.766,1.441,3.208,3.208,3.208
				c1.766,0,3.207-1.441,3.207-3.208C186.306,109.05,184.865,107.609,183.099,107.609z M183.099,113.317c-1.377,0-2.5-1.123-2.5-2.5
				c0-1.377,1.122-2.5,2.5-2.5c1.376,0,2.5,1.122,2.5,2.5C185.599,112.195,184.475,113.317,183.099,113.317z"/>
		</g>
		<g>
			<path class="st1" d="M184.399,111.509c-0.023-0.048-0.07-0.115-0.142-0.205c-0.072-0.088-0.125-0.145-0.162-0.172
				c-0.056-0.04-0.144-0.08-0.265-0.122c0.15-0.034,0.269-0.077,0.357-0.129c0.135-0.083,0.243-0.191,0.321-0.323
				c0.077-0.133,0.116-0.29,0.116-0.472c0-0.21-0.05-0.387-0.152-0.533c-0.102-0.146-0.236-0.246-0.402-0.3
				c-0.165-0.054-0.406-0.08-0.72-0.08h-0.21h-1.483v3.289h1.021v-1.335h0.089c0.093,0,0.177,0.026,0.249,0.076
				c0.038,0.027,0.079,0.078,0.124,0.151c0.019,0.03,0.04,0.064,0.06,0.103l0.543,1.005h1.148L184.399,111.509z M183.539,110.358
				c-0.042,0.055-0.098,0.09-0.165,0.103c-0.105,0.024-0.183,0.038-0.235,0.042c-0.013,0.002-0.025,0.002-0.035,0.002h-0.428v-0.669
				h0.446h0.017c0.177,0.001,0.297,0.03,0.362,0.086c0.068,0.056,0.102,0.138,0.102,0.244
				C183.603,110.239,183.582,110.303,183.539,110.358z"/>
		</g>
	</g>
</g>
</svg>
