<?xml version="1.0" encoding="utf-8"?>
<!-- Generator: Adobe Illustrator 23.0.6, SVG Export Plug-In . SVG Version: 6.00 Build 0)  -->
<svg version="1.1" id="Modo_de_aislamiento" xmlns="http://www.w3.org/2000/svg" xmlns:xlink="http://www.w3.org/1999/xlink"
	 x="0px" y="0px" viewBox="0 0 198.425 198.425" style="enable-background:new 0 0 198.425 198.425;" xml:space="preserve">
<style type="text/css">
	.st0{fill:#283C83;}
</style>
<g>
	<path class="st0" d="M86.9,76.53c2.939,3.506,5.853,7.032,8.779,10.549c0.316,0.373,0.606,0.774,0.959,1.117
		c0.037-3.671,0.002-7.344,0.019-11.015c1.651-0.012,3.301-0.009,4.953-0.002c-0.003,8.337,0.014,16.675-0.011,25.011
		c-3.286-3.872-6.484-7.82-9.746-11.711c-0.015,3.658,0.005,7.315-0.012,10.972c-1.648-0.007-3.296-0.007-4.945,0.001
		C86.895,93.144,86.892,84.838,86.9,76.53z"/>
	<path class="st0" d="M37.533,101.468c2.27-8.214,4.524-16.43,6.799-24.641c1.939,3.865,3.826,7.758,5.773,11.619
		c1.939-3.868,3.838-7.758,5.772-11.627c2.254,8.217,4.543,16.426,6.782,24.648c-1.761,0.002-3.519,0.006-5.278-0.001
		c-0.838-3.079-1.698-6.153-2.58-9.221c-0.082,0.072-0.15,0.156-0.202,0.249c-1.174,2.54-2.364,5.075-3.547,7.611
		c-0.336,0.661-0.576,1.371-0.977,1.994c-1.554-3.3-3.056-6.625-4.642-9.908c-0.897,2.961-1.686,5.952-2.524,8.929
		c-0.06,0.145-0.06,0.426-0.304,0.349C40.917,101.468,39.225,101.466,37.533,101.468z"/>
	<g>
		<path class="st0" d="M71.745,76.973c2.697-0.399,5.526,0.11,7.902,1.454c3.257,1.808,5.614,5.146,6.205,8.829
			c0.466,2.796-0.042,5.752-1.456,8.215c-1.1,1.956-2.747,3.597-4.702,4.7c-2.384,1.369-5.237,1.89-7.954,1.482
			c-3.873-0.541-7.393-3.045-9.196-6.512c-1.252-2.359-1.71-5.125-1.292-7.762c0.407-2.621,1.674-5.1,3.571-6.952
			C66.686,78.577,69.149,77.345,71.745,76.973z M72,82.122c-2.546,0.531-4.711,2.523-5.461,5.014
			c-0.559,1.817-0.396,3.855,0.489,5.542c0.908,1.791,2.585,3.169,4.518,3.711c1.793,0.512,3.782,0.317,5.43-0.56
			c1.465-0.773,2.666-2.049,3.321-3.573c0.666-1.512,0.796-3.252,0.361-4.846c-0.479-1.831-1.7-3.457-3.335-4.417
			C75.745,82.039,73.801,81.731,72,82.122z"/>
	</g>
	<g>
		<path class="st0" d="M130.273,76.966c3.799-0.566,7.816,0.749,10.521,3.475c2.848,2.76,4.212,6.943,3.553,10.852
			c-0.521,3.414-2.563,6.546-5.448,8.437c-3.286,2.21-7.656,2.671-11.34,1.223c-3.517-1.339-6.329-4.359-7.419-7.961
			c-0.782-2.539-0.734-5.329,0.158-7.833c0.706-2.014,1.945-3.838,3.556-5.238C125.646,78.337,127.911,77.301,130.273,76.966z
			 M130.526,82.114c-1.342,0.28-2.592,0.949-3.576,1.901c-1.421,1.355-2.262,3.304-2.246,5.269c-0.025,1.615,0.521,3.227,1.51,4.503
			c1.233,1.638,3.191,2.711,5.239,2.859c1.575,0.132,3.193-0.258,4.524-1.113c1.457-0.922,2.571-2.367,3.081-4.011
			c0.54-1.713,0.425-3.621-0.32-5.256c-0.779-1.711-2.232-3.106-3.984-3.791C133.423,81.928,131.93,81.826,130.526,82.114z"/>
	</g>
	<path class="st0" d="M17.659,77.156c8.112,0,16.224-0.004,24.337,0.002c-0.448,1.702-0.959,3.388-1.399,5.092
		c-2.508,0.052-5.019,0.007-7.528,0.023c-4.386-0.016-8.771,0.027-13.156-0.022C19.168,80.551,18.409,78.854,17.659,77.156z"/>
	<g>
		<path class="st0" d="M102.92,77.197c3.452-0.025,6.919-0.314,10.357,0.13c2.073,0.22,3.981,1.493,5.068,3.259
			c0.957,1.72,1.355,3.753,1.066,5.703c-0.206,1.336-0.847,2.598-1.793,3.562c-0.831,0.866-1.846,1.53-2.889,2.111
			c1.93,3.165,3.903,6.303,5.839,9.467c-1.893,0.002-3.782,0.005-5.669-0.001c-2.364-3.269-4.655-6.589-7.007-9.866
			c-0.014,3.29-0.03,6.578-0.025,9.867c-1.651,0.003-3.303,0.003-4.952,0C102.926,93.352,102.916,85.273,102.92,77.197z
			 M107.928,82.244c0.001,2.03-0.009,4.061,0.003,6.09c1.592,0.109,3.264,0.197,4.775-0.397c1.557-0.626,2.2-2.65,1.551-4.138
			c-0.512-0.914-1.539-1.541-2.591-1.55C110.421,82.205,109.174,82.229,107.928,82.244z"/>
	</g>
	<path class="st0" d="M145.179,77.159c3.053-0.008,6.109-0.001,9.164-0.002c0.513,1.689,1.025,3.38,1.432,5.099
		c-1.894,0.002-3.791-0.012-5.687,0.019c-0.003,1.399-0.003,2.798,0,4.196c2.274,0.007,4.548-0.006,6.824,0.007
		c0.515,1.672,0.962,3.363,1.407,5.056c-2.74,0.031-5.478-0.015-8.216-0.002c0.002,1.592-0.006,3.185,0.003,4.778
		c3.214-0.006,6.426-0.007,9.642,0c0.426,1.715,0.887,3.423,1.241,5.158c-5.267,0.006-10.535-0.01-15.801,0.007
		C145.16,93.371,145.183,85.265,145.179,77.159z"/>
	<path class="st0" d="M156.442,77.155c8.109,0.004,16.215-0.005,24.325,0.005c-0.748,1.71-1.499,3.422-2.27,5.123
		c-6.877-0.019-13.751-0.016-20.625-0.002C157.374,80.578,156.904,78.868,156.442,77.155z"/>
	<path class="st0" d="M20.346,83.25c6.644,0.008,13.289,0.002,19.932,0.005c-0.503,1.811-0.99,3.629-1.526,5.43
		c-5.317-0.007-10.632,0-15.949-0.003C21.989,86.868,21.168,85.057,20.346,83.25z"/>
	<path class="st0" d="M158.16,83.255c6.643,0.007,13.281-0.017,19.922,0.012c-0.833,1.801-1.62,3.623-2.47,5.417
		c-5.318-0.004-10.636,0.001-15.951-0.003C159.181,86.866,158.638,85.069,158.16,83.255z"/>
	<path class="st0" d="M23.343,89.711c5.04-0.002,10.081-0.008,15.121,0.002c-0.482,1.819-0.995,3.629-1.489,5.446
		c-3.763,0.01-7.527,0.006-11.29,0.002C24.913,93.342,24.123,91.528,23.343,89.711z"/>
	<path class="st0" d="M159.963,89.711c5.042-0.004,10.084-0.005,15.126,0.001c-0.771,1.815-1.567,3.618-2.324,5.439
		c-3.773,0.03-7.538,0.011-11.306,0.01C160.962,93.342,160.459,91.527,159.963,89.711z"/>
	<path class="st0" d="M26.134,96.313c3.524-0.014,7.049-0.008,10.573-0.002c-0.466,1.705-0.953,3.404-1.41,5.113
		c-2.277,0.007-4.555,0.013-6.831-0.004C27.702,99.712,26.917,98.013,26.134,96.313z"/>
	<path class="st0" d="M161.725,96.312c3.525-0.009,7.046-0.009,10.571,0c-0.785,1.705-1.55,3.418-2.346,5.119
		c-2.268-0.002-4.538,0.007-6.807-0.006C162.676,99.719,162.2,98.016,161.725,96.312z"/>
	<g>
		<path class="st0" d="M173.983,96.813c1.057-0.346,2.307,0.214,2.757,1.231c0.379,0.791,0.267,1.803-0.307,2.471
			c-0.549,0.679-1.497,0.992-2.341,0.779c-1.005-0.228-1.782-1.203-1.758-2.237C172.299,98.052,173.01,97.079,173.983,96.813z
			 M174.003,97.249c-0.959,0.318-1.515,1.474-1.153,2.42c0.324,1.024,1.602,1.573,2.567,1.105c0.915-0.372,1.381-1.523,0.996-2.429
			C176.069,97.41,174.935,96.88,174.003,97.249z"/>
	</g>
	<g>
		<path class="st0" d="M173.81,97.711c0.552,0.026,1.336-0.131,1.638,0.479c0.233,0.473-0.199,0.932-0.642,1.032
			c0.289,0.388,0.624,0.734,0.915,1.119c-0.787,0.142-0.9-0.917-1.524-1.149c-0.009,0.381-0.003,0.765-0.009,1.146
			c-0.096-0.001-0.288-0.003-0.385-0.005C173.801,99.459,173.789,98.585,173.81,97.711z M174.184,97.992
			c0,0.328,0.001,0.655,0.005,0.984c0.335-0.031,0.824,0.005,0.95-0.403C175.247,98.017,174.561,97.992,174.184,97.992z"/>
	</g>
	<path class="st0" d="M78.747,105.973c0.737-0.005,1.475-0.006,2.215,0c0.002,1.021-0.006,2.04,0.003,3.059
		c0.441,0.003,0.88,0.003,1.319-0.009c0.025,0.655,0.007,1.314,0.016,1.97c-0.448,0-0.892,0.003-1.336,0.003
		c-0.007,2.404-0.002,4.809-0.002,7.217c-0.74,0.003-1.478,0.003-2.215-0.002c-0.002-2.406,0.011-4.812-0.008-7.218
		c-0.359,0-0.717,0-1.077,0c0.002-0.655,0.002-1.306,0.002-1.958c0.359-0.003,0.721-0.003,1.08-0.006
		C78.752,108.011,78.747,106.99,78.747,105.973z"/>
	<path class="st0" d="M83.594,105.969c0.738,0,1.473,0,2.211,0.002c-0.006,0.669-0.002,1.339-0.002,2.009
		c-0.736,0.012-1.472,0.006-2.208,0.006C83.584,107.313,83.59,106.641,83.594,105.969z"/>
	<g>
		<path class="st0" d="M126.448,105.973c0.732-0.006,1.469-0.003,2.205-0.002c-0.002,4.081-0.002,8.162,0,12.243
			c-0.676,0.001-1.354-0.003-2.028,0c0.003-0.383,0.003-0.763-0.006-1.144c-0.524,0.58-1.163,1.083-1.934,1.284
			c-1.668,0.503-3.554-0.188-4.6-1.553c-1.385-1.702-1.467-4.311-0.186-6.092c1.131-1.64,3.45-2.485,5.31-1.64
			c0.464,0.195,0.858,0.516,1.23,0.849C126.449,108.604,126.436,107.288,126.448,105.973z M123.215,110.973
			c-1.151,0.302-2.051,1.429-2.018,2.626c-0.001,0.785,0.337,1.564,0.922,2.088c0.676,0.636,1.708,0.838,2.586,0.549
			c0.915-0.286,1.633-1.095,1.831-2.029c0.211-0.909-0.095-1.919-0.777-2.557C125.097,111.014,124.101,110.732,123.215,110.973z"/>
	</g>
	<g>
		<path class="st0" d="M39.118,108.855c1.018-0.239,2.149-0.146,3.049,0.419c0.431,0.239,0.746,0.627,1.099,0.962
			c0.008-0.402,0.005-0.8,0.005-1.201c0.676-0.003,1.352,0,2.028-0.003c0.002,3.059,0.01,6.122-0.004,9.184
			c-0.677-0.001-1.354,0-2.029-0.001c0.01-0.383,0.009-0.765-0.015-1.147c-0.52,0.543-1.139,1.004-1.862,1.232
			c-1.658,0.571-3.646-0.016-4.714-1.412c-1.134-1.471-1.377-3.557-0.707-5.278C36.541,110.295,37.701,109.19,39.118,108.855z
			 M39.855,110.968c-1.202,0.251-2.038,1.43-2.045,2.631c-0.047,0.976,0.494,1.958,1.359,2.42c1.008,0.563,2.386,0.447,3.227-0.366
			c1.097-1.057,1.1-3.045-0.029-4.081C41.71,110.946,40.722,110.757,39.855,110.968z"/>
	</g>
	<path class="st0" d="M48.979,109.742c1.307-1.495,3.985-1.297,5.058,0.379c1.373-1.818,4.488-1.88,5.884-0.065
		c0.623,0.735,0.784,1.734,0.787,2.668c0.023,1.831-0.002,3.661,0.013,5.491c-0.741,0-1.479,0-2.22-0.002
		c0.002-1.703,0.004-3.41,0-5.115c-0.017-0.579-0.044-1.229-0.449-1.683c-0.666-0.711-1.913-0.686-2.578,0.017
		c-0.425,0.436-0.51,1.078-0.538,1.662c-0.011,1.705,0.002,3.413-0.005,5.119c-0.736,0.003-1.474,0.006-2.209-0.002
		c-0.008-1.751,0.005-3.503-0.007-5.254c0.006-0.639-0.187-1.343-0.734-1.728c-0.716-0.521-1.9-0.465-2.421,0.31
		c-0.39,0.608-0.398,1.365-0.412,2.063c-0.008,1.534-0.005,3.072-0.001,4.606c-0.735,0.012-1.471,0.008-2.207,0.001
		c-0.003-3.059,0-6.118-0.002-9.178c0.676,0,1.351,0,2.028,0C48.969,109.269,48.973,109.503,48.979,109.742z"/>
	<g>
		<path class="st0" d="M66.233,108.802c1.14-0.192,2.35,0.022,3.333,0.637c1.305,0.807,2.191,2.257,2.297,3.789
			c0.09,1.044-0.161,2.114-0.72,2.999c-0.887,1.43-2.553,2.332-4.235,2.288c-1.862-0.001-3.623-1.208-4.37-2.899
			c-0.712-1.561-0.51-3.494,0.517-4.87C63.8,109.708,64.975,109.005,66.233,108.802z M66.207,111.024
			c-1.003,0.323-1.782,1.253-1.875,2.308c-0.147,1.164,0.542,2.37,1.62,2.829c0.959,0.407,2.136,0.193,2.897-0.515
			c0.794-0.748,1.039-1.986,0.652-2.994C69.054,111.359,67.513,110.543,66.207,111.024z"/>
	</g>
	<path class="st0" d="M75.692,108.954c0.377-0.192,0.808-0.211,1.223-0.237c0.005,0.715,0.007,1.43,0,2.145
		c-0.542,0.04-1.106,0.194-1.499,0.589c-0.365,0.357-0.472,0.89-0.469,1.384c-0.006,1.792,0,3.584-0.002,5.377
		c-0.738,0.006-1.476,0.002-2.214,0.002c-0.003-3.061,0.005-6.123-0.005-9.183c0.669,0.003,1.334,0,2.003,0
		c0.005,0.245,0.013,0.49,0.033,0.735C75.051,109.474,75.31,109.131,75.692,108.954z"/>
	<g>
		<path class="st0" d="M87.876,111.005c0.919-1.564,2.817-2.494,4.613-2.225c0.923,0.112,1.744,0.649,2.274,1.402
			c0.005-0.385,0.008-0.773,0.017-1.157c0.67,0.012,1.342,0.006,2.014,0.009c0.003,2.729,0.003,5.459,0,8.188
			c-0.005,1.222-0.503,2.432-1.403,3.269c-0.809,0.759-1.616,1.131-2.423,1.308c-0.431,0.093-1.489,0.168-2.366-0.025
			c-1.469-0.326-2.778-1.424-3.293-2.857c0.828-0.006,1.657,0,2.485-0.003c1.097,1.117,3.063,1.163,4.182,0.056
			c0.545-0.496,0.726-1.25,0.799-1.958c-0.54,0.58-1.152,1.142-1.934,1.356c-1.361,0.416-2.838-0.099-3.922-0.949
			C87.097,115.909,86.62,113.012,87.876,111.005z M91.146,111.034c-0.536,0.19-1.006,0.557-1.329,1.023
			c-0.572,0.85-0.575,2.023-0.091,2.912c0.52,0.976,1.685,1.536,2.774,1.37c1.244-0.177,2.22-1.37,2.228-2.612
			c0.031-0.762-0.259-1.53-0.805-2.063C93.21,110.962,92.092,110.695,91.146,111.034z"/>
	</g>
	<g>
		<path class="st0" d="M111.172,108.967c1.147-0.375,2.479-0.323,3.508,0.349c0.402,0.239,0.701,0.6,1.03,0.926
			c0.019-0.404,0.017-0.807,0.016-1.21c0.672,0,1.347,0.003,2.02,0c0.009,3.059-0.002,6.122,0.006,9.184
			c-0.676,0-1.353-0.001-2.029-0.001c0.003-0.38,0.003-0.76-0.009-1.137c-0.544,0.515-1.145,0.993-1.869,1.221
			c-1.491,0.515-3.253,0.095-4.372-1.016c-1.542-1.57-1.858-4.17-0.849-6.105C109.194,110.189,110.075,109.339,111.172,108.967z
			 M112.076,111.03c-1.267,0.385-2.001,1.804-1.792,3.076c0.126,0.866,0.709,1.655,1.513,2.006c0.987,0.456,2.252,0.301,3.047-0.459
			c1.092-1.063,1.095-3.045-0.03-4.086C114.099,110.886,112.996,110.732,112.076,111.03z"/>
	</g>
	<g>
		<path class="st0" d="M134.039,108.802c1.139-0.202,2.349,0.025,3.331,0.636c1.132,0.695,1.949,1.88,2.215,3.183
			c0.254,1.271,0.025,2.653-0.717,3.726c-0.945,1.435-2.687,2.284-4.399,2.16c-1.952-0.104-3.731-1.528-4.31-3.387
			c-0.459-1.373-0.242-2.946,0.549-4.153C131.446,109.817,132.69,109.013,134.039,108.802z M134.022,111.024
			c-0.77,0.254-1.424,0.862-1.716,1.62c-0.436,1.12-0.062,2.498,0.922,3.205c0.993,0.76,2.51,0.664,3.413-0.199
			c1.021-0.939,1.12-2.659,0.254-3.73C136.243,111.072,135.039,110.655,134.022,111.024z"/>
	</g>
	<path class="st0" d="M143.888,108.951c0.374-0.192,0.804-0.205,1.213-0.234c0.003,0.715,0.012,1.43-0.002,2.145
		c-0.653,0.048-1.37,0.281-1.717,0.878c-0.318,0.565-0.242,1.238-0.251,1.859c0.002,1.539,0,3.076,0.002,4.614
		c-0.734,0.003-1.466,0.003-2.195-0.002c0-3.059,0.003-6.12-0.003-9.179c0.667,0.003,1.334,0.003,2.003,0
		c0.001,0.233,0.009,0.467,0.017,0.701C143.258,109.466,143.511,109.123,143.888,108.951z"/>
	<g>
		<path class="st0" d="M147.911,109.612c1.358-0.968,3.248-1.169,4.755-0.428c1.983,0.925,3.129,3.286,2.634,5.422
			c-2.377,0.005-4.755-0.008-7.13,0.008c0.222,0.652,0.698,1.223,1.331,1.508c1.033,0.468,2.333,0.225,3.154-0.554
			c0.81-0.011,1.624-0.008,2.44-0.002c-0.804,2.063-3.202,3.307-5.355,2.861c-1.846-0.335-3.413-1.844-3.798-3.683
			C145.503,112.842,146.305,110.726,147.911,109.612z M148.137,112.634c1.686,0.016,3.369,0.016,5.056,0
			c-0.268-0.661-0.76-1.25-1.432-1.52C150.41,110.502,148.626,111.219,148.137,112.634z"/>
	</g>
	<path class="st0" d="M157.163,110.09c0.908-1.301,2.8-1.809,4.227-1.107c0.967,0.442,1.806,1.384,1.781,2.498
		c-0.707-0.019-1.411,0.016-2.116-0.022c-0.321-0.735-1.409-0.836-1.95-0.298c-0.22,0.22-0.236,0.644,0.014,0.844
		c0.383,0.329,0.912,0.369,1.375,0.524c0.888,0.27,1.846,0.555,2.464,1.292c0.47,0.566,0.534,1.348,0.435,2.051
		c-0.087,0.762-0.504,1.503-1.173,1.894c-1.16,0.687-2.658,0.912-3.903,0.323c-1.114-0.482-1.902-1.62-1.915-2.841
		c0.739-0.005,1.479-0.005,2.223,0c0.253,0.92,1.448,1.331,2.223,0.787c0.373-0.202,0.52-0.742,0.22-1.067
		c-0.388-0.437-0.991-0.554-1.522-0.732c-0.781-0.233-1.638-0.436-2.198-1.075C156.589,112.342,156.525,110.996,157.163,110.09z"/>
	<path class="st0" d="M83.596,109.032c0.733,0,1.467,0.006,2.201-0.003c0.019,3.063,0,6.123,0.009,9.186
		c-0.738,0.001-1.474,0-2.211,0.001C83.588,115.153,83.584,112.091,83.596,109.032z"/>
	<path class="st0" d="M98.507,109.032c0.735,0,1.467,0.012,2.2-0.012c0.037,1.688-0.008,3.379,0.022,5.067
		c0.03,0.551,0.088,1.148,0.436,1.602c0.658,0.877,2.185,0.922,2.831,0.014c0.394-0.576,0.455-1.301,0.476-1.978
		c0.003-1.565,0-3.127,0-4.69c0.738-0.003,1.477-0.003,2.217-0.003c-0.002,3.059,0.003,6.12-0.003,9.178
		c-0.673,0.009-1.347,0.005-2.021,0.003c-0.003-0.298-0.006-0.596-0.012-0.89c-0.355,0.472-0.808,0.905-1.396,1.058
		c-1.553,0.453-3.344-0.219-4.214-1.582c-0.463-0.676-0.53-1.526-0.535-2.322C98.506,112.662,98.504,110.847,98.507,109.032z"/>
</g>
</svg>
