<?xml version="1.0" encoding="utf-8"?>
<!-- Generator: Adobe Illustrator 23.0.6, SVG Export Plug-In . SVG Version: 6.00 Build 0)  -->
<svg version="1.1" id="Modo_de_aislamiento" xmlns="http://www.w3.org/2000/svg" xmlns:xlink="http://www.w3.org/1999/xlink"
	 x="0px" y="0px" viewBox="0 0 198.425 198.425" style="enable-background:new 0 0 198.425 198.425;" xml:space="preserve">
<style type="text/css">
	.st0{fill-rule:evenodd;clip-rule:evenodd;fill:#FF5100;}
</style>
<g>
	<g>
		<polygon class="st0" points="52.462,74.719 56.384,79.923 47.498,85.253 10.389,85.291 29.602,91.441 36.466,97.028 
			34.628,105.764 56.139,115.849 40.007,103.392 47.655,94.993 49.565,98.192 49.623,92.832 57.842,83.807 66.497,82.685 		"/>
		<path d="M118.027,101.468c3.007-0.469,4.638-2.694,4.638-5.264c0-3.979-3.177-5.735-7.365-5.735h-0.548h-7.688v18.637h5.509
			v-7.169h0.056l2.122,2.926l3.078,4.242h6.859L118.027,101.468z M114.752,98.7c-0.527,0.096-1.096,0.123-1.645,0.123h-0.534v-4.647
			h0.534c0.548,0,1.118,0.028,1.645,0.124c1.201,0.219,2.179,0.792,2.179,2.2C116.931,97.909,115.953,98.482,114.752,98.7z
			 M134.391,111.706l2.195-4.28l9.051-16.956h-5.988l-5.144,9.64l-5.116-9.64h-5.988l8.911,16.956L134.391,111.706z
			 M159.072,105.003h-6.549v-3.214h6.212v-4.103h-6.212v-3.114h6.549v-4.103h-12.059v18.637h12.059V105.003z M178.131,100.424
			l-15.657-13.236v21.918h5.509v-10.7l15.657,13.85V90.469h-5.509V100.424z M181.042,89.583c1.649,0,2.994-1.346,2.994-2.995
			c0-1.65-1.345-2.995-2.994-2.995c-1.65,0-2.995,1.345-2.995,2.995C178.047,88.237,179.392,89.583,181.042,89.583z M181.042,84.255
			c1.285,0,2.333,1.048,2.333,2.334c0,1.285-1.049,2.333-2.333,2.333c-1.286,0-2.333-1.048-2.333-2.333
			C178.709,85.302,179.757,84.255,181.042,84.255z M180.648,86.877h0.084c0.087,0,0.165,0.024,0.233,0.071
			c0.035,0.026,0.074,0.073,0.116,0.141c0.018,0.028,0.038,0.06,0.056,0.096l0.507,0.938h1.072l-0.459-0.89
			c-0.022-0.045-0.066-0.108-0.133-0.191c-0.067-0.082-0.117-0.136-0.151-0.161c-0.052-0.038-0.135-0.075-0.247-0.114
			c0.14-0.031,0.252-0.072,0.333-0.12c0.126-0.078,0.226-0.178,0.299-0.302c0.072-0.124,0.109-0.27,0.109-0.441
			c0-0.196-0.047-0.361-0.142-0.497c-0.095-0.136-0.22-0.23-0.376-0.28c-0.154-0.05-0.379-0.075-0.672-0.075h-0.196h-1.385v3.07
			h0.953V86.877z M180.648,85.673h0.416h0.016c0.165,0.001,0.278,0.028,0.338,0.08c0.064,0.053,0.095,0.129,0.095,0.228
			c0,0.067-0.02,0.127-0.06,0.178c-0.04,0.052-0.092,0.084-0.154,0.096c-0.098,0.022-0.171,0.035-0.219,0.04
			c-0.012,0.002-0.023,0.002-0.032,0.002h-0.4V85.673z M58.69,99.873l0.001,0.031l-0.001,0.031
			c-0.084,10.561,12.809,14.856,20.6,11.41v-6.484c-3.885,3.65-13.52,3.121-13.722-4.912l0.002-0.045l-0.002-0.045
			c0.202-8.034,9.837-8.563,13.722-4.912v-6.484C71.499,85.018,58.606,89.313,58.69,99.873z M92.805,89.851
			c-6.092,0.009-11.702,3.961-11.702,9.59c0,6.025,4.909,10.273,11.702,10.282c6.792-0.009,11.701-4.257,11.701-10.282
			C104.506,93.812,98.897,89.861,92.805,89.851z M92.805,105.026c-3.28-0.009-5.967-2.354-5.967-5.56
			c0-2.565,2.688-4.908,5.967-4.918c3.279,0.01,5.967,2.353,5.967,4.918C98.772,102.673,96.084,105.017,92.805,105.026z"/>
	</g>
	<g>
		<path d="M89.583,116.599l-0.318,1.171h-3.325c-0.013,0-0.03,0.002-0.05,0.005c-0.02,0.004-0.033,0.008-0.04,0.015
			c-0.02,0.007-0.04,0.015-0.06,0.025c-0.02,0.01-0.036,0.019-0.05,0.025c-0.013,0.014-0.027,0.027-0.04,0.04
			c-0.014,0.014-0.027,0.023-0.04,0.03c-0.013,0.014-0.025,0.028-0.035,0.045c-0.01,0.017-0.015,0.031-0.015,0.044l-0.139,0.527
			c-0.007,0.013-0.01,0.026-0.01,0.04c0,0.013,0,0.023,0,0.03c0,0.013,0.003,0.028,0.01,0.044c0.007,0.017,0.013,0.028,0.02,0.035
			c0.007,0.013,0.016,0.03,0.03,0.05c0.013,0.02,0.026,0.033,0.04,0.04c0.02,0.014,0.038,0.024,0.055,0.03
			c0.016,0.007,0.035,0.01,0.055,0.01h2.184c0.04,0,0.083,0.002,0.129,0.005c0.046,0.003,0.093,0.008,0.139,0.015
			c0.046,0.007,0.091,0.017,0.134,0.03c0.043,0.014,0.084,0.023,0.124,0.03c0.04,0.014,0.08,0.03,0.119,0.05
			c0.04,0.02,0.076,0.04,0.109,0.06c0.033,0.02,0.068,0.044,0.104,0.074c0.036,0.03,0.068,0.058,0.094,0.085
			c0.02,0.027,0.04,0.055,0.06,0.085c0.02,0.03,0.033,0.058,0.04,0.084c0.013,0.033,0.026,0.066,0.04,0.099
			c0.013,0.033,0.023,0.066,0.03,0.1c0.007,0.033,0.01,0.071,0.01,0.114c0,0.043,0,0.085,0,0.124
			c-0.007,0.04-0.013,0.085-0.02,0.134c-0.007,0.05-0.017,0.101-0.03,0.154l-0.586,2.174c-0.007,0.033-0.016,0.069-0.03,0.109
			c-0.013,0.04-0.026,0.076-0.04,0.109c-0.007,0.033-0.018,0.069-0.035,0.109c-0.017,0.04-0.032,0.073-0.045,0.1
			c-0.027,0.053-0.053,0.102-0.08,0.149c-0.026,0.046-0.053,0.089-0.079,0.129c-0.027,0.04-0.058,0.081-0.094,0.124
			c-0.037,0.043-0.068,0.081-0.094,0.114c-0.073,0.073-0.149,0.14-0.228,0.204c-0.079,0.063-0.165,0.117-0.258,0.164
			c-0.06,0.026-0.119,0.053-0.179,0.079s-0.122,0.043-0.189,0.05c-0.06,0.013-0.122,0.025-0.188,0.034
			c-0.066,0.01-0.133,0.015-0.199,0.015h-4.705l0.308-1.181h3.315c0.02,0,0.04-0.002,0.06-0.005c0.02-0.003,0.04-0.008,0.059-0.015
			c0.026-0.006,0.05-0.013,0.07-0.02c0.02-0.006,0.04-0.016,0.059-0.03c0.013-0.006,0.03-0.016,0.05-0.03
			c0.02-0.013,0.036-0.026,0.05-0.04c0.013-0.013,0.026-0.03,0.04-0.05c0.013-0.02,0.02-0.04,0.02-0.059l0.169-0.626
			c0.007-0.013,0.01-0.03,0.01-0.05s-0.003-0.036-0.01-0.05c-0.007-0.013-0.015-0.026-0.025-0.04
			c-0.01-0.013-0.021-0.026-0.035-0.04c-0.007-0.006-0.016-0.016-0.03-0.03c-0.013-0.013-0.027-0.023-0.04-0.03
			c-0.02-0.007-0.038-0.011-0.055-0.015c-0.017-0.003-0.035-0.005-0.055-0.005h-2.402c-0.04,0-0.081-0.002-0.124-0.005
			c-0.043-0.003-0.084-0.008-0.124-0.015c-0.04-0.007-0.078-0.015-0.114-0.025c-0.036-0.01-0.068-0.021-0.094-0.034
			c-0.033-0.007-0.065-0.02-0.094-0.04c-0.03-0.02-0.058-0.037-0.084-0.05c-0.027-0.02-0.05-0.041-0.069-0.064
			c-0.02-0.023-0.04-0.045-0.06-0.065c-0.033-0.053-0.063-0.109-0.089-0.169c-0.013-0.027-0.023-0.059-0.03-0.099
			c-0.007-0.04-0.01-0.08-0.01-0.12c-0.007-0.066-0.007-0.14,0-0.223c0.007-0.082,0.023-0.17,0.05-0.263l0.596-2.223
			c0.013-0.04,0.026-0.081,0.04-0.124c0.013-0.043,0.03-0.085,0.05-0.124c0.013-0.04,0.031-0.083,0.055-0.129
			c0.023-0.046,0.048-0.09,0.075-0.129c0.02-0.04,0.045-0.081,0.074-0.124c0.03-0.043,0.058-0.084,0.084-0.124
			c0.033-0.04,0.068-0.08,0.104-0.119c0.036-0.04,0.074-0.076,0.114-0.109c0.026-0.033,0.058-0.063,0.094-0.089
			c0.036-0.027,0.071-0.053,0.104-0.079c0.04-0.027,0.079-0.051,0.119-0.075c0.04-0.023,0.079-0.044,0.119-0.065
			c0.04-0.013,0.081-0.026,0.124-0.04c0.043-0.013,0.084-0.026,0.124-0.04c0.04-0.006,0.085-0.013,0.134-0.02
			c0.05-0.006,0.098-0.01,0.144-0.01H89.583z"/>
		<path d="M88.74,123.696l1.896-7.127h2.412l-0.506,1.906h2.65c0.112,0,0.218,0.01,0.318,0.03c0.046,0.014,0.091,0.03,0.134,0.05
			c0.043,0.02,0.081,0.04,0.114,0.059c0.033,0.02,0.068,0.044,0.104,0.074c0.036,0.03,0.068,0.058,0.094,0.085
			c0.026,0.033,0.051,0.066,0.074,0.099c0.023,0.033,0.045,0.066,0.064,0.099c0.02,0.033,0.038,0.07,0.055,0.11
			c0.016,0.04,0.028,0.079,0.035,0.119c0.013,0.04,0.023,0.083,0.03,0.129c0.007,0.046,0.01,0.089,0.01,0.129
			c0.007,0.053,0.01,0.109,0.01,0.169s-0.003,0.116-0.01,0.169c-0.007,0.06-0.013,0.12-0.02,0.179
			c-0.007,0.059-0.017,0.116-0.03,0.169l-0.953,3.563h-2.402l1.052-3.931c0-0.013,0-0.03,0-0.05c0-0.02,0-0.036,0-0.05
			c-0.007-0.013-0.014-0.028-0.02-0.045c-0.007-0.016-0.013-0.031-0.02-0.044c-0.013-0.007-0.028-0.017-0.045-0.03
			c-0.016-0.013-0.031-0.023-0.045-0.03c-0.007-0.007-0.02-0.014-0.04-0.02c-0.02-0.007-0.036-0.01-0.05-0.01h-1.152
			c-0.013,0-0.03,0.003-0.05,0.01c-0.02,0.006-0.036,0.013-0.05,0.02c-0.013,0.013-0.03,0.028-0.05,0.044
			c-0.02,0.017-0.036,0.032-0.05,0.045c-0.014,0.013-0.027,0.03-0.04,0.05s-0.026,0.037-0.04,0.05
			c-0.007,0.02-0.015,0.04-0.025,0.059c-0.01,0.02-0.018,0.037-0.025,0.05l-1.032,3.871H88.74z"/>
		<path d="M102.834,118.485c0.046,0,0.093,0.002,0.139,0.005c0.046,0.003,0.089,0.008,0.129,0.015
			c0.04,0.007,0.081,0.017,0.124,0.03c0.043,0.013,0.081,0.023,0.114,0.03c0.04,0.006,0.075,0.02,0.104,0.04
			c0.03,0.02,0.055,0.04,0.074,0.06c0.026,0.02,0.053,0.046,0.079,0.079c0.026,0.033,0.05,0.063,0.07,0.089
			c0.02,0.027,0.035,0.062,0.045,0.104c0.01,0.043,0.021,0.085,0.035,0.124c0.007,0.046,0.013,0.096,0.02,0.149
			c0.007,0.053,0.007,0.109,0,0.169c0,0.033-0.002,0.07-0.005,0.11c-0.003,0.04-0.011,0.079-0.025,0.119s-0.023,0.085-0.03,0.134
			c-0.007,0.05-0.017,0.098-0.03,0.144l-0.665,2.471c-0.013,0.046-0.028,0.096-0.045,0.149c-0.017,0.053-0.032,0.1-0.045,0.139
			c-0.02,0.046-0.04,0.091-0.059,0.134c-0.02,0.043-0.04,0.085-0.059,0.124c-0.02,0.046-0.045,0.091-0.074,0.134
			c-0.03,0.043-0.061,0.085-0.094,0.124c-0.026,0.04-0.056,0.076-0.089,0.109c-0.033,0.033-0.066,0.063-0.099,0.089
			c-0.026,0.027-0.058,0.053-0.094,0.079c-0.037,0.027-0.071,0.05-0.104,0.07c-0.033,0.02-0.071,0.041-0.114,0.064
			c-0.043,0.024-0.081,0.038-0.114,0.045c-0.046,0.013-0.094,0.027-0.144,0.04c-0.05,0.013-0.098,0.023-0.144,0.03
			c-0.053,0.007-0.104,0.011-0.154,0.015c-0.05,0.004-0.098,0.005-0.144,0.005h-4.079c-0.046,0-0.096-0.002-0.149-0.005
			c-0.053-0.003-0.103-0.011-0.149-0.025c-0.046-0.007-0.093-0.02-0.139-0.04c-0.046-0.02-0.089-0.04-0.129-0.059
			c-0.033-0.02-0.064-0.041-0.094-0.065c-0.03-0.023-0.055-0.048-0.075-0.075c-0.026-0.026-0.051-0.054-0.074-0.084
			c-0.023-0.03-0.041-0.061-0.055-0.094c-0.007-0.027-0.016-0.059-0.03-0.099c-0.013-0.04-0.023-0.079-0.03-0.119
			c-0.007-0.04-0.011-0.081-0.015-0.124c-0.003-0.043-0.002-0.091,0.005-0.144c0-0.027,0-0.053,0-0.079
			c0-0.027,0.003-0.056,0.01-0.089c0.007-0.027,0.013-0.06,0.02-0.1c0.007-0.04,0.016-0.076,0.03-0.109l0.665-2.521
			c0.013-0.046,0.026-0.091,0.04-0.134c0.013-0.043,0.026-0.085,0.04-0.124c0.007-0.04,0.02-0.079,0.04-0.119
			c0.02-0.04,0.036-0.076,0.05-0.11c0.026-0.053,0.056-0.105,0.089-0.159c0.033-0.053,0.063-0.102,0.089-0.149
			c0.033-0.046,0.066-0.088,0.099-0.124c0.033-0.037,0.069-0.071,0.109-0.104c0.033-0.033,0.071-0.066,0.114-0.099
			c0.043-0.033,0.081-0.06,0.114-0.079c0.04-0.02,0.083-0.041,0.129-0.065c0.046-0.023,0.086-0.038,0.119-0.044
			c0.046-0.007,0.091-0.017,0.134-0.03c0.043-0.014,0.084-0.023,0.124-0.03c0.04-0.006,0.081-0.011,0.124-0.015
			c0.043-0.003,0.084-0.005,0.124-0.005H102.834z M101.117,119.517h-1.31c-0.02,0-0.043,0.01-0.07,0.03
			c-0.013,0.013-0.028,0.027-0.045,0.04c-0.016,0.013-0.028,0.023-0.035,0.03c-0.007,0.013-0.017,0.028-0.03,0.045
			c-0.013,0.016-0.02,0.028-0.02,0.034c-0.007,0.014-0.013,0.03-0.02,0.05c-0.007,0.02-0.013,0.033-0.02,0.04l-0.685,2.571
			c-0.007,0.02-0.01,0.04-0.01,0.059c0,0.02,0.003,0.037,0.01,0.05c0.006,0.02,0.013,0.04,0.02,0.059
			c0.007,0.02,0.013,0.033,0.02,0.04c0.007,0.014,0.016,0.029,0.03,0.045c0.013,0.017,0.026,0.028,0.04,0.035
			c0.033,0.02,0.066,0.03,0.099,0.03h1.142c0.02,0,0.038-0.002,0.055-0.005c0.016-0.003,0.035-0.011,0.055-0.025
			c0.02-0.007,0.041-0.017,0.064-0.03c0.023-0.014,0.041-0.027,0.055-0.04c0.02-0.006,0.038-0.02,0.055-0.04
			c0.016-0.02,0.028-0.036,0.035-0.05c0.02-0.02,0.035-0.04,0.045-0.059c0.01-0.02,0.015-0.036,0.015-0.05l0.695-2.581
			c0.007-0.013,0.01-0.03,0.01-0.05c0-0.02,0-0.036,0-0.05c-0.007-0.013-0.015-0.028-0.025-0.044
			c-0.01-0.017-0.018-0.032-0.025-0.045c-0.007-0.007-0.017-0.017-0.03-0.03c-0.013-0.013-0.027-0.023-0.04-0.03
			c-0.013-0.007-0.028-0.013-0.045-0.02C101.135,119.521,101.124,119.517,101.117,119.517z"/>
		<path d="M109.971,118.485l-0.268,1.023h-2.402c-0.027,0-0.054,0.005-0.084,0.015c-0.03,0.01-0.058,0.018-0.085,0.025
			c-0.026,0.013-0.054,0.028-0.084,0.044c-0.03,0.017-0.058,0.035-0.084,0.055c-0.027,0.02-0.053,0.041-0.08,0.065
			c-0.026,0.023-0.05,0.044-0.069,0.064c-0.013,0.027-0.028,0.053-0.045,0.079c-0.017,0.027-0.025,0.05-0.025,0.07l-0.635,2.362
			c-0.007,0.02-0.01,0.043-0.01,0.069c0,0.027,0.003,0.05,0.01,0.069c0.007,0.027,0.016,0.052,0.03,0.075
			c0.013,0.023,0.026,0.041,0.04,0.054c0.02,0.02,0.041,0.039,0.064,0.055c0.023,0.017,0.045,0.028,0.065,0.035
			c0.02,0.013,0.043,0.021,0.069,0.025c0.026,0.004,0.053,0.005,0.079,0.005h2.392l-0.278,1.032H104.7
			c-0.066,0-0.131-0.003-0.193-0.01c-0.063-0.007-0.118-0.017-0.164-0.03c-0.053-0.007-0.104-0.021-0.154-0.045
			c-0.05-0.023-0.094-0.044-0.134-0.064c-0.033-0.027-0.066-0.055-0.099-0.085c-0.033-0.03-0.063-0.061-0.089-0.094
			c-0.027-0.026-0.051-0.061-0.075-0.104c-0.023-0.043-0.045-0.085-0.064-0.124c-0.007-0.027-0.015-0.059-0.025-0.099
			c-0.01-0.04-0.018-0.08-0.025-0.119c-0.02-0.079-0.026-0.159-0.02-0.238c0-0.04,0.002-0.081,0.005-0.124
			c0.003-0.043,0.008-0.085,0.015-0.124c0-0.04,0.003-0.081,0.01-0.124c0.007-0.043,0.013-0.084,0.02-0.124l0.586-2.174
			c0.013-0.046,0.028-0.093,0.045-0.139c0.016-0.046,0.035-0.096,0.055-0.149c0.02-0.046,0.045-0.095,0.074-0.149
			c0.03-0.053,0.058-0.103,0.085-0.149c0.026-0.046,0.058-0.094,0.094-0.144c0.036-0.05,0.068-0.098,0.094-0.144
			c0.04-0.046,0.081-0.091,0.124-0.134c0.043-0.043,0.085-0.085,0.124-0.124c0.04-0.026,0.081-0.056,0.124-0.089
			c0.043-0.033,0.085-0.063,0.124-0.089c0.046-0.027,0.094-0.053,0.144-0.079c0.05-0.027,0.097-0.05,0.144-0.069
			c0.033-0.007,0.071-0.017,0.114-0.03c0.043-0.014,0.084-0.023,0.124-0.03c0.04-0.006,0.083-0.011,0.129-0.015
			c0.046-0.003,0.089-0.005,0.129-0.005H109.971z"/>
		<path d="M112.353,120.291l2.561-1.806h1.529l-1.767,1.251l1.161,3.97h-2.869l-0.476-2.451l-0.496,0.387l-0.556,2.065h-2.392
			l1.896-7.117h2.402L112.353,120.291z"/>
		<path d="M128.8,116.609l0.804,7.097h-2.66l-0.228-1.886h-2.888l-1.37,1.886h-1.191l5.042-7.097H128.8z M126.309,118.207
			l-1.638,2.422h1.955L126.309,118.207z"/>
		<path d="M134.735,116.579l-0.506,1.896c0.218,0,0.44,0,0.665,0c0.225,0,0.447,0,0.665,0c0.218,0,0.44,0,0.665,0s0.447,0,0.665,0
			c0.066,0,0.126,0.002,0.179,0.005c0.053,0.003,0.096,0.008,0.129,0.015c0.04,0.007,0.074,0.014,0.104,0.02
			c0.03,0.007,0.051,0.014,0.064,0.02c0.02,0.006,0.038,0.013,0.055,0.02c0.016,0.006,0.028,0.01,0.035,0.01
			c0,0.006,0,0.011,0,0.015c0,0.004-0.003,0.005-0.01,0.005c0.033,0.013,0.068,0.031,0.104,0.054
			c0.036,0.023,0.071,0.048,0.104,0.075c0.026,0.027,0.051,0.056,0.074,0.089c0.023,0.033,0.048,0.063,0.074,0.089
			c0.04,0.073,0.073,0.151,0.099,0.233c0.026,0.083,0.04,0.171,0.04,0.263c0,0.046,0,0.096,0,0.149c0,0.053-0.007,0.103-0.02,0.149
			c0,0.046-0.005,0.099-0.015,0.159c-0.01,0.06-0.025,0.12-0.045,0.179l-0.576,2.164c-0.02,0.059-0.04,0.119-0.059,0.178
			c-0.02,0.059-0.04,0.116-0.06,0.169c-0.02,0.053-0.043,0.104-0.07,0.154c-0.026,0.05-0.053,0.094-0.079,0.134
			c-0.04,0.053-0.078,0.106-0.114,0.159c-0.036,0.053-0.071,0.1-0.104,0.139c-0.046,0.046-0.091,0.089-0.134,0.129
			c-0.043,0.04-0.088,0.073-0.134,0.099c-0.033,0.033-0.073,0.063-0.119,0.089c-0.046,0.027-0.089,0.05-0.129,0.07
			c-0.046,0.02-0.091,0.041-0.134,0.064c-0.043,0.024-0.088,0.038-0.134,0.045c-0.06,0.02-0.114,0.037-0.164,0.05
			c-0.05,0.013-0.091,0.02-0.124,0.02c-0.033,0.007-0.064,0.011-0.094,0.015c-0.03,0.004-0.051,0.005-0.065,0.005
			c-0.02,0-0.038,0-0.054,0c-0.016,0-0.028,0-0.035,0c-0.417,0-0.837,0-1.261,0c-0.423,0-0.844,0-1.26,0c-0.424,0-0.847,0-1.271,0
			c-0.423,0-0.844,0-1.26,0l1.896-7.127H134.735z M135.291,119.498h-1.052c-0.04,0-0.076,0.01-0.109,0.03
			c-0.027,0.013-0.051,0.028-0.074,0.044c-0.023,0.017-0.041,0.032-0.055,0.045c-0.02,0.013-0.038,0.03-0.055,0.05
			s-0.031,0.04-0.045,0.06c-0.013,0.02-0.025,0.042-0.035,0.065c-0.01,0.023-0.018,0.044-0.025,0.064l-0.675,2.501
			c-0.013,0.04-0.013,0.076,0,0.109c0.007,0.02,0.015,0.04,0.025,0.059c0.01,0.02,0.018,0.033,0.025,0.04
			c0.007,0.014,0.018,0.029,0.035,0.045c0.016,0.017,0.028,0.028,0.035,0.035c0.04,0.02,0.08,0.03,0.119,0.03h1.052
			c0.013,0,0.03-0.002,0.05-0.005c0.02-0.003,0.036-0.011,0.05-0.025c0.026-0.007,0.051-0.018,0.074-0.035
			c0.023-0.016,0.041-0.031,0.055-0.045c0.013-0.013,0.028-0.03,0.045-0.05c0.016-0.02,0.028-0.036,0.035-0.05
			c0.033-0.04,0.053-0.079,0.06-0.119l0.675-2.502c0.007-0.013,0.01-0.03,0.01-0.05c0-0.02,0-0.04,0-0.059
			c-0.007-0.02-0.013-0.041-0.02-0.064c-0.007-0.023-0.013-0.042-0.02-0.055c-0.007-0.013-0.017-0.028-0.03-0.045
			c-0.013-0.016-0.027-0.028-0.04-0.034c-0.013-0.007-0.03-0.015-0.05-0.025C135.331,119.502,135.311,119.498,135.291,119.498z"/>
		<path d="M144.959,118.485l-0.248,0.963h-3.206c-0.006,0-0.016,0.002-0.03,0.005c-0.013,0.004-0.026,0.005-0.04,0.005
			c-0.013,0.006-0.03,0.013-0.05,0.02c-0.02,0.006-0.037,0.013-0.05,0.02c-0.014,0.006-0.027,0.015-0.04,0.025
			c-0.014,0.01-0.024,0.018-0.03,0.025c-0.014,0.013-0.025,0.027-0.035,0.04c-0.01,0.013-0.015,0.023-0.015,0.03l-0.079,0.288
			c0,0.013,0,0.025,0,0.034c0,0.01,0.006,0.018,0.02,0.025c0.006,0.006,0.015,0.015,0.025,0.025c0.01,0.01,0.018,0.018,0.025,0.025
			c0.013,0.007,0.026,0.013,0.04,0.02c0.013,0.007,0.023,0.01,0.03,0.01c0.02,0,0.038,0.002,0.055,0.005
			c0.016,0.004,0.028,0.005,0.034,0.005h2.352c0.033,0,0.069,0.002,0.11,0.005c0.04,0.004,0.076,0.008,0.109,0.015
			c0.033,0.007,0.068,0.015,0.104,0.025c0.036,0.01,0.067,0.019,0.094,0.025c0.033,0.014,0.065,0.028,0.094,0.045
			c0.03,0.016,0.058,0.034,0.085,0.054c0.02,0.02,0.043,0.042,0.069,0.065c0.026,0.023,0.05,0.048,0.069,0.075
			c0.013,0.02,0.026,0.044,0.04,0.074c0.013,0.03,0.027,0.058,0.04,0.085c0.007,0.027,0.015,0.058,0.025,0.094
			c0.01,0.036,0.015,0.071,0.015,0.104c0,0.033,0.002,0.07,0.005,0.11c0.003,0.04,0.002,0.079-0.005,0.119
			c-0.007,0.04-0.013,0.083-0.02,0.129c-0.007,0.046-0.02,0.096-0.04,0.149l-0.318,1.221c-0.013,0.046-0.028,0.093-0.044,0.139
			c-0.017,0.046-0.035,0.089-0.055,0.129c-0.02,0.04-0.043,0.081-0.069,0.124c-0.027,0.043-0.05,0.084-0.069,0.124
			c-0.02,0.033-0.046,0.068-0.079,0.104c-0.033,0.037-0.063,0.068-0.09,0.094c-0.026,0.033-0.058,0.064-0.094,0.094
			c-0.037,0.03-0.068,0.058-0.094,0.085c-0.033,0.027-0.069,0.052-0.109,0.075c-0.04,0.023-0.076,0.044-0.109,0.064
			c-0.04,0.02-0.08,0.042-0.119,0.065c-0.04,0.024-0.079,0.041-0.119,0.055c-0.046,0.02-0.096,0.036-0.149,0.05
			c-0.053,0.013-0.103,0.023-0.149,0.03c-0.053,0.013-0.104,0.021-0.153,0.025c-0.05,0.004-0.094,0.005-0.134,0.005h-4.606
			l0.248-0.943h3.415c0.006,0,0.02-0.002,0.04-0.005c0.02-0.003,0.036-0.008,0.05-0.015c0.013-0.007,0.028-0.013,0.044-0.02
			c0.017-0.007,0.031-0.017,0.045-0.03c0.013-0.007,0.027-0.015,0.04-0.025c0.013-0.01,0.023-0.021,0.03-0.034
			c0.013-0.007,0.023-0.018,0.03-0.035c0.007-0.016,0.014-0.031,0.02-0.045l0.069-0.288c0.007-0.007,0.01-0.017,0.01-0.03
			c0-0.014-0.003-0.027-0.01-0.04c0-0.007-0.005-0.017-0.015-0.03c-0.01-0.014-0.018-0.024-0.025-0.03
			c-0.006-0.007-0.018-0.015-0.034-0.025c-0.017-0.01-0.028-0.015-0.035-0.015c-0.007-0.006-0.018-0.011-0.034-0.015
			c-0.017-0.003-0.032-0.005-0.045-0.005h-2.352c-0.04,0-0.083-0.002-0.129-0.005c-0.046-0.003-0.093-0.008-0.139-0.015
			c-0.046-0.006-0.093-0.018-0.139-0.034c-0.046-0.017-0.089-0.035-0.129-0.055c-0.027-0.006-0.052-0.02-0.075-0.04
			c-0.024-0.02-0.045-0.04-0.065-0.059c-0.027-0.02-0.048-0.041-0.065-0.065c-0.016-0.023-0.031-0.048-0.044-0.074
			c-0.014-0.02-0.027-0.043-0.04-0.07c-0.014-0.026-0.02-0.053-0.02-0.079c-0.007-0.026-0.014-0.056-0.02-0.089
			c-0.007-0.033-0.01-0.063-0.01-0.089s0-0.055,0-0.085s0.003-0.058,0.01-0.084c0.006-0.027,0.013-0.056,0.02-0.09
			c0.006-0.033,0.013-0.066,0.02-0.099l0.377-1.39c0.013-0.046,0.028-0.091,0.044-0.134c0.017-0.043,0.031-0.081,0.045-0.114
			c0.027-0.04,0.051-0.079,0.075-0.119c0.023-0.04,0.048-0.076,0.074-0.109c0.027-0.027,0.056-0.058,0.09-0.094
			c0.033-0.036,0.063-0.068,0.089-0.094c0.026-0.027,0.058-0.055,0.094-0.085c0.036-0.03,0.071-0.055,0.104-0.075
			c0.04-0.026,0.079-0.051,0.119-0.074c0.04-0.023,0.076-0.045,0.11-0.065c0.04-0.02,0.081-0.038,0.124-0.055
			c0.043-0.016,0.085-0.031,0.124-0.044c0.046-0.014,0.096-0.027,0.149-0.04c0.053-0.014,0.105-0.027,0.159-0.04
			c0.106-0.02,0.202-0.03,0.288-0.03H144.959z"/>
		<path d="M151.192,118.485c0.046,0,0.092,0.002,0.139,0.005c0.046,0.003,0.09,0.008,0.129,0.015c0.04,0.007,0.081,0.017,0.124,0.03
			c0.043,0.013,0.081,0.023,0.114,0.03c0.04,0.006,0.075,0.02,0.104,0.04c0.03,0.02,0.054,0.04,0.075,0.06
			c0.026,0.02,0.053,0.046,0.079,0.079c0.026,0.033,0.05,0.063,0.069,0.089c0.02,0.027,0.034,0.062,0.044,0.104
			c0.01,0.043,0.021,0.085,0.035,0.124c0.007,0.046,0.013,0.096,0.02,0.149c0.007,0.053,0.007,0.109,0,0.169
			c0,0.033-0.002,0.07-0.005,0.11c-0.004,0.04-0.012,0.079-0.025,0.119c-0.014,0.04-0.023,0.085-0.03,0.134
			c-0.007,0.05-0.017,0.098-0.03,0.144l-0.665,2.471c-0.013,0.046-0.028,0.096-0.044,0.149c-0.017,0.053-0.032,0.1-0.045,0.139
			c-0.02,0.046-0.04,0.091-0.06,0.134c-0.02,0.043-0.04,0.085-0.059,0.124c-0.02,0.046-0.045,0.091-0.075,0.134
			c-0.03,0.043-0.061,0.085-0.094,0.124c-0.027,0.04-0.056,0.076-0.09,0.109c-0.033,0.033-0.066,0.063-0.099,0.089
			c-0.027,0.027-0.058,0.053-0.094,0.079c-0.036,0.027-0.071,0.05-0.104,0.07c-0.033,0.02-0.071,0.041-0.114,0.064
			c-0.043,0.024-0.081,0.038-0.114,0.045c-0.046,0.013-0.094,0.027-0.144,0.04c-0.05,0.013-0.098,0.023-0.143,0.03
			c-0.053,0.007-0.104,0.011-0.154,0.015c-0.05,0.004-0.098,0.005-0.144,0.005h-4.079c-0.046,0-0.096-0.002-0.149-0.005
			c-0.053-0.003-0.103-0.011-0.149-0.025c-0.046-0.007-0.093-0.02-0.139-0.04c-0.046-0.02-0.089-0.04-0.129-0.059
			c-0.033-0.02-0.065-0.041-0.094-0.065c-0.03-0.023-0.055-0.048-0.075-0.075c-0.027-0.026-0.051-0.054-0.074-0.084
			c-0.023-0.03-0.041-0.061-0.055-0.094c-0.007-0.027-0.017-0.059-0.03-0.099c-0.013-0.04-0.023-0.079-0.03-0.119
			c-0.007-0.04-0.011-0.081-0.015-0.124c-0.003-0.043-0.002-0.091,0.005-0.144c0-0.027,0-0.053,0-0.079
			c0-0.027,0.003-0.056,0.01-0.089c0.007-0.027,0.013-0.06,0.02-0.1c0.007-0.04,0.017-0.076,0.03-0.109l0.665-2.521
			c0.014-0.046,0.027-0.091,0.04-0.134c0.014-0.043,0.027-0.085,0.04-0.124c0.006-0.04,0.02-0.079,0.04-0.119
			c0.02-0.04,0.036-0.076,0.05-0.11c0.026-0.053,0.056-0.105,0.089-0.159c0.033-0.053,0.063-0.102,0.089-0.149
			c0.033-0.046,0.066-0.088,0.099-0.124c0.033-0.037,0.07-0.071,0.11-0.104c0.033-0.033,0.071-0.066,0.114-0.099
			c0.043-0.033,0.081-0.06,0.114-0.079c0.04-0.02,0.083-0.041,0.129-0.065c0.046-0.023,0.086-0.038,0.12-0.044
			c0.046-0.007,0.091-0.017,0.134-0.03c0.043-0.014,0.085-0.023,0.124-0.03c0.04-0.006,0.081-0.011,0.124-0.015
			c0.043-0.003,0.085-0.005,0.124-0.005H151.192z M149.475,119.517h-1.31c-0.02,0-0.043,0.01-0.069,0.03
			c-0.013,0.013-0.028,0.027-0.044,0.04c-0.017,0.013-0.029,0.023-0.035,0.03c-0.007,0.013-0.017,0.028-0.03,0.045
			c-0.014,0.016-0.02,0.028-0.02,0.034c-0.007,0.014-0.014,0.03-0.02,0.05c-0.007,0.02-0.014,0.033-0.02,0.04l-0.685,2.571
			c-0.007,0.02-0.01,0.04-0.01,0.059c0,0.02,0.003,0.037,0.01,0.05c0.007,0.02,0.014,0.04,0.02,0.059
			c0.007,0.02,0.014,0.033,0.02,0.04c0.007,0.014,0.017,0.029,0.03,0.045c0.014,0.017,0.027,0.028,0.04,0.035
			c0.033,0.02,0.066,0.03,0.099,0.03h1.141c0.02,0,0.038-0.002,0.055-0.005c0.016-0.003,0.034-0.011,0.054-0.025
			c0.02-0.007,0.042-0.017,0.065-0.03c0.023-0.014,0.041-0.027,0.055-0.04c0.02-0.006,0.038-0.02,0.054-0.04
			c0.017-0.02,0.028-0.036,0.035-0.05c0.02-0.02,0.035-0.04,0.045-0.059c0.01-0.02,0.015-0.036,0.015-0.05l0.695-2.581
			c0.006-0.013,0.01-0.03,0.01-0.05c0-0.02,0-0.036,0-0.05c-0.007-0.013-0.015-0.028-0.025-0.044
			c-0.01-0.017-0.018-0.032-0.025-0.045c-0.007-0.007-0.017-0.017-0.03-0.03c-0.013-0.013-0.026-0.023-0.04-0.03
			c-0.013-0.007-0.028-0.013-0.044-0.02C149.493,119.521,149.482,119.517,149.475,119.517z"/>
		<path d="M154.309,123.706h-2.412l1.399-5.231h2.412l-0.119,0.467c0.02-0.026,0.044-0.053,0.075-0.079
			c0.03-0.026,0.061-0.05,0.094-0.069c0.013-0.006,0.028-0.016,0.045-0.03c0.016-0.013,0.031-0.026,0.044-0.04
			c0.02-0.007,0.04-0.017,0.06-0.03c0.02-0.013,0.036-0.023,0.05-0.03c0.02-0.007,0.041-0.017,0.064-0.03
			c0.023-0.014,0.045-0.027,0.065-0.04c0.026-0.007,0.051-0.017,0.075-0.03c0.023-0.014,0.044-0.023,0.064-0.03
			c0.02-0.007,0.043-0.014,0.069-0.02c0.027-0.006,0.05-0.01,0.07-0.01c0.02-0.006,0.041-0.011,0.064-0.015
			c0.023-0.003,0.045-0.005,0.065-0.005h1.439l-0.387,1.45h-1.271c-0.059,0-0.121,0.005-0.184,0.015
			c-0.063,0.01-0.121,0.018-0.173,0.025c-0.06,0.013-0.116,0.03-0.169,0.05c-0.053,0.02-0.103,0.04-0.149,0.059
			c-0.02,0.014-0.043,0.027-0.069,0.04c-0.027,0.014-0.05,0.024-0.069,0.03c-0.02,0.014-0.04,0.03-0.06,0.05
			c-0.02,0.02-0.04,0.04-0.06,0.059c-0.027,0.02-0.05,0.042-0.069,0.065c-0.02,0.023-0.033,0.045-0.04,0.065
			c-0.02,0.026-0.036,0.054-0.05,0.084c-0.014,0.03-0.023,0.058-0.03,0.085L154.309,123.706z"/>
		<path d="M161.267,116.579l-0.506,1.896c0.219,0,0.44,0,0.665,0c0.225,0,0.447,0,0.665,0c0.219,0,0.44,0,0.665,0
			c0.225,0,0.447,0,0.665,0c0.066,0,0.126,0.002,0.179,0.005c0.053,0.003,0.095,0.008,0.129,0.015
			c0.04,0.007,0.074,0.014,0.104,0.02c0.03,0.007,0.051,0.014,0.064,0.02c0.02,0.006,0.038,0.013,0.055,0.02
			c0.016,0.006,0.028,0.01,0.034,0.01c0,0.006,0,0.011,0,0.015c0,0.004-0.003,0.005-0.01,0.005c0.033,0.013,0.068,0.031,0.104,0.054
			c0.036,0.023,0.071,0.048,0.104,0.075c0.026,0.027,0.051,0.056,0.075,0.089c0.023,0.033,0.048,0.063,0.074,0.089
			c0.04,0.073,0.073,0.151,0.099,0.233c0.027,0.083,0.04,0.171,0.04,0.263c0,0.046,0,0.096,0,0.149c0,0.053-0.006,0.103-0.02,0.149
			c0,0.046-0.005,0.099-0.015,0.159c-0.01,0.06-0.025,0.12-0.045,0.179l-0.576,2.164c-0.02,0.059-0.04,0.119-0.059,0.178
			c-0.02,0.059-0.04,0.116-0.06,0.169c-0.02,0.053-0.043,0.104-0.069,0.154c-0.027,0.05-0.053,0.094-0.08,0.134
			c-0.04,0.053-0.078,0.106-0.114,0.159c-0.036,0.053-0.071,0.1-0.104,0.139c-0.046,0.046-0.091,0.089-0.134,0.129
			c-0.043,0.04-0.088,0.073-0.134,0.099c-0.033,0.033-0.073,0.063-0.119,0.089c-0.046,0.027-0.089,0.05-0.129,0.07
			c-0.046,0.02-0.091,0.041-0.134,0.064c-0.043,0.024-0.088,0.038-0.134,0.045c-0.06,0.02-0.114,0.037-0.164,0.05
			c-0.05,0.013-0.091,0.02-0.124,0.02c-0.033,0.007-0.065,0.011-0.094,0.015c-0.03,0.004-0.052,0.005-0.065,0.005
			c-0.02,0-0.038,0-0.054,0c-0.017,0-0.029,0-0.035,0c-0.417,0-0.837,0-1.261,0c-0.423,0-0.844,0-1.261,0c-0.423,0-0.847,0-1.27,0
			c-0.424,0-0.844,0-1.261,0l1.896-7.127H161.267z M161.823,119.498h-1.052c-0.04,0-0.076,0.01-0.109,0.03
			c-0.027,0.013-0.051,0.028-0.075,0.044c-0.023,0.017-0.041,0.032-0.054,0.045c-0.02,0.013-0.038,0.03-0.055,0.05
			c-0.017,0.02-0.031,0.04-0.044,0.06c-0.014,0.02-0.025,0.042-0.035,0.065c-0.01,0.023-0.018,0.044-0.025,0.064l-0.675,2.501
			c-0.014,0.04-0.014,0.076,0,0.109c0.006,0.02,0.015,0.04,0.025,0.059c0.01,0.02,0.018,0.033,0.025,0.04
			c0.006,0.014,0.018,0.029,0.035,0.045c0.016,0.017,0.028,0.028,0.034,0.035c0.04,0.02,0.079,0.03,0.119,0.03h1.052
			c0.013,0,0.03-0.002,0.05-0.005c0.02-0.003,0.036-0.011,0.05-0.025c0.026-0.007,0.051-0.018,0.075-0.035
			c0.023-0.016,0.041-0.031,0.054-0.045c0.014-0.013,0.028-0.03,0.045-0.05c0.016-0.02,0.028-0.036,0.034-0.05
			c0.033-0.04,0.053-0.079,0.06-0.119l0.675-2.502c0.007-0.013,0.01-0.03,0.01-0.05c0-0.02,0-0.04,0-0.059
			c-0.007-0.02-0.013-0.041-0.02-0.064c-0.007-0.023-0.014-0.042-0.02-0.055c-0.007-0.013-0.017-0.028-0.03-0.045
			c-0.014-0.016-0.027-0.028-0.04-0.034c-0.014-0.007-0.03-0.015-0.05-0.025C161.862,119.502,161.843,119.498,161.823,119.498z"/>
		<path d="M170.925,118.465c0.059,0,0.117,0.004,0.174,0.01c0.056,0.007,0.111,0.014,0.164,0.02
			c0.046,0.014,0.095,0.029,0.149,0.045c0.053,0.017,0.102,0.038,0.149,0.065c0.033,0.02,0.065,0.044,0.094,0.074
			c0.03,0.03,0.055,0.058,0.075,0.085c0.026,0.033,0.05,0.069,0.069,0.109c0.02,0.04,0.036,0.079,0.05,0.119
			c0.006,0.026,0.015,0.06,0.025,0.099c0.01,0.04,0.015,0.076,0.015,0.109c0,0.033,0,0.071,0,0.114c0,0.043-0.004,0.084-0.01,0.124
			c-0.007,0.053-0.017,0.111-0.03,0.173c-0.014,0.063-0.027,0.124-0.04,0.184l-0.506,1.856h-4.04l-0.149,0.566
			c-0.006,0.027-0.01,0.053-0.01,0.079c0,0.027,0.004,0.053,0.01,0.079c0,0.027,0.008,0.053,0.025,0.079
			c0.016,0.027,0.031,0.05,0.045,0.069c0.013,0.02,0.031,0.042,0.054,0.065c0.023,0.024,0.045,0.038,0.065,0.045
			c0.02,0.013,0.043,0.023,0.069,0.03c0.026,0.006,0.053,0.01,0.079,0.01h3.345l-0.278,1.022h-4.993
			c-0.046,0-0.096-0.002-0.149-0.005c-0.053-0.003-0.102-0.008-0.149-0.015s-0.093-0.02-0.139-0.04
			c-0.046-0.02-0.089-0.04-0.129-0.059c-0.033-0.014-0.066-0.033-0.1-0.06c-0.033-0.027-0.06-0.053-0.079-0.08
			c-0.02-0.026-0.04-0.059-0.059-0.099c-0.02-0.04-0.036-0.079-0.05-0.119c-0.013-0.027-0.023-0.058-0.03-0.094
			c-0.007-0.036-0.01-0.074-0.01-0.114c0-0.04,0-0.084,0-0.134c0-0.05,0-0.098,0-0.144c0.007-0.033,0.011-0.068,0.015-0.104
			c0.004-0.036,0.008-0.071,0.015-0.104c0.013-0.04,0.023-0.081,0.03-0.124c0.007-0.043,0.013-0.085,0.02-0.124l0.625-2.352
			c0.014-0.04,0.027-0.08,0.04-0.119c0.014-0.04,0.023-0.076,0.03-0.109c0.013-0.033,0.028-0.068,0.044-0.104
			c0.017-0.036,0.028-0.071,0.035-0.104c0.026-0.053,0.053-0.106,0.079-0.159c0.026-0.053,0.053-0.102,0.079-0.149
			c0.027-0.046,0.058-0.092,0.094-0.139c0.036-0.046,0.068-0.086,0.094-0.119c0.04-0.04,0.079-0.079,0.119-0.119
			c0.04-0.04,0.079-0.073,0.119-0.099c0.04-0.027,0.085-0.053,0.134-0.079c0.05-0.027,0.098-0.046,0.144-0.059
			c0.04-0.014,0.084-0.027,0.134-0.04c0.05-0.014,0.098-0.024,0.144-0.03c0.046-0.006,0.094-0.013,0.144-0.02
			c0.05-0.006,0.094-0.01,0.134-0.01H170.925z M169.247,120.639l0.219-0.824c0.006-0.013,0.01-0.03,0.01-0.05c0-0.02,0-0.036,0-0.05
			c-0.007-0.02-0.014-0.04-0.02-0.059c-0.007-0.02-0.014-0.037-0.02-0.05c-0.006-0.013-0.016-0.027-0.03-0.04
			c-0.013-0.013-0.026-0.027-0.04-0.04c-0.013-0.007-0.028-0.014-0.044-0.02c-0.017-0.007-0.032-0.01-0.045-0.01h-1.151
			c-0.02,0-0.039,0.003-0.055,0.01c-0.017,0.006-0.031,0.013-0.045,0.02c-0.02,0.013-0.04,0.027-0.06,0.04
			c-0.02,0.013-0.036,0.023-0.05,0.03c-0.013,0.013-0.028,0.03-0.044,0.05c-0.017,0.02-0.032,0.037-0.045,0.05
			c-0.033,0.04-0.053,0.076-0.06,0.109l-0.219,0.834H169.247z"/>
		<path d="M174.061,123.706h-2.412l1.399-5.231h2.412l-0.119,0.467c0.02-0.026,0.044-0.053,0.075-0.079
			c0.03-0.026,0.061-0.05,0.094-0.069c0.013-0.006,0.028-0.016,0.045-0.03c0.016-0.013,0.031-0.026,0.044-0.04
			c0.02-0.007,0.04-0.017,0.06-0.03c0.02-0.013,0.036-0.023,0.05-0.03c0.02-0.007,0.041-0.017,0.064-0.03
			c0.023-0.014,0.045-0.027,0.065-0.04c0.026-0.007,0.051-0.017,0.075-0.03c0.023-0.014,0.044-0.023,0.064-0.03
			c0.02-0.007,0.043-0.014,0.069-0.02c0.027-0.006,0.05-0.01,0.07-0.01c0.02-0.006,0.041-0.011,0.064-0.015
			c0.023-0.003,0.045-0.005,0.065-0.005h1.439l-0.387,1.45h-1.271c-0.059,0-0.121,0.005-0.184,0.015
			c-0.063,0.01-0.121,0.018-0.173,0.025c-0.06,0.013-0.116,0.03-0.169,0.05c-0.053,0.02-0.103,0.04-0.149,0.059
			c-0.02,0.014-0.043,0.027-0.069,0.04c-0.027,0.014-0.05,0.024-0.069,0.03c-0.02,0.014-0.04,0.03-0.06,0.05
			c-0.02,0.02-0.04,0.04-0.059,0.059c-0.027,0.02-0.05,0.042-0.069,0.065c-0.02,0.023-0.033,0.045-0.04,0.065
			c-0.02,0.026-0.036,0.054-0.05,0.084c-0.014,0.03-0.023,0.058-0.03,0.085L174.061,123.706z"/>
		<path d="M184.036,118.485l-0.248,0.963h-3.206c-0.006,0-0.016,0.002-0.03,0.005c-0.013,0.004-0.026,0.005-0.04,0.005
			c-0.013,0.006-0.03,0.013-0.05,0.02c-0.02,0.006-0.036,0.013-0.05,0.02c-0.014,0.006-0.027,0.015-0.04,0.025
			c-0.014,0.01-0.023,0.018-0.03,0.025c-0.014,0.013-0.025,0.027-0.035,0.04c-0.01,0.013-0.015,0.023-0.015,0.03l-0.079,0.288
			c0,0.013,0,0.025,0,0.034c0,0.01,0.006,0.018,0.02,0.025c0.006,0.006,0.015,0.015,0.025,0.025c0.01,0.01,0.018,0.018,0.025,0.025
			c0.013,0.007,0.026,0.013,0.04,0.02c0.013,0.007,0.023,0.01,0.03,0.01c0.02,0,0.038,0.002,0.055,0.005
			c0.016,0.004,0.028,0.005,0.034,0.005h2.352c0.033,0,0.069,0.002,0.11,0.005c0.04,0.004,0.076,0.008,0.109,0.015
			c0.033,0.007,0.068,0.015,0.104,0.025c0.036,0.01,0.067,0.019,0.094,0.025c0.033,0.014,0.065,0.028,0.094,0.045
			c0.03,0.016,0.058,0.034,0.085,0.054c0.02,0.02,0.043,0.042,0.069,0.065c0.026,0.023,0.05,0.048,0.069,0.075
			c0.013,0.02,0.026,0.044,0.04,0.074c0.013,0.03,0.027,0.058,0.04,0.085c0.007,0.027,0.015,0.058,0.025,0.094
			c0.01,0.036,0.015,0.071,0.015,0.104c0,0.033,0.002,0.07,0.005,0.11c0.003,0.04,0.002,0.079-0.005,0.119
			c-0.007,0.04-0.013,0.083-0.02,0.129c-0.007,0.046-0.02,0.096-0.04,0.149l-0.318,1.221c-0.013,0.046-0.028,0.093-0.044,0.139
			c-0.017,0.046-0.035,0.089-0.055,0.129c-0.02,0.04-0.043,0.081-0.069,0.124c-0.027,0.043-0.05,0.084-0.069,0.124
			c-0.02,0.033-0.046,0.068-0.079,0.104c-0.033,0.037-0.063,0.068-0.09,0.094c-0.026,0.033-0.058,0.064-0.094,0.094
			c-0.037,0.03-0.068,0.058-0.094,0.085c-0.033,0.027-0.069,0.052-0.109,0.075c-0.04,0.023-0.076,0.044-0.109,0.064
			c-0.04,0.02-0.08,0.042-0.119,0.065c-0.04,0.024-0.079,0.041-0.119,0.055c-0.046,0.02-0.096,0.036-0.149,0.05
			c-0.053,0.013-0.103,0.023-0.149,0.03c-0.053,0.013-0.104,0.021-0.153,0.025c-0.05,0.004-0.094,0.005-0.134,0.005h-4.605
			l0.248-0.943h3.415c0.006,0,0.02-0.002,0.04-0.005c0.02-0.003,0.036-0.008,0.05-0.015c0.013-0.007,0.028-0.013,0.044-0.02
			c0.017-0.007,0.031-0.017,0.045-0.03c0.013-0.007,0.027-0.015,0.04-0.025c0.013-0.01,0.023-0.021,0.03-0.034
			c0.013-0.007,0.023-0.018,0.03-0.035c0.007-0.016,0.014-0.031,0.02-0.045l0.069-0.288c0.007-0.007,0.01-0.017,0.01-0.03
			c0-0.014-0.003-0.027-0.01-0.04c0-0.007-0.005-0.017-0.015-0.03c-0.01-0.014-0.018-0.024-0.025-0.03
			c-0.006-0.007-0.018-0.015-0.034-0.025c-0.017-0.01-0.028-0.015-0.035-0.015c-0.007-0.006-0.018-0.011-0.034-0.015
			c-0.017-0.003-0.032-0.005-0.045-0.005h-2.352c-0.04,0-0.083-0.002-0.129-0.005c-0.046-0.003-0.093-0.008-0.139-0.015
			c-0.046-0.006-0.093-0.018-0.139-0.034c-0.046-0.017-0.089-0.035-0.129-0.055c-0.027-0.006-0.052-0.02-0.075-0.04
			c-0.023-0.02-0.045-0.04-0.065-0.059c-0.027-0.02-0.048-0.041-0.064-0.065c-0.017-0.023-0.032-0.048-0.045-0.074
			c-0.013-0.02-0.027-0.043-0.04-0.07c-0.014-0.026-0.02-0.053-0.02-0.079c-0.007-0.026-0.014-0.056-0.02-0.089
			c-0.007-0.033-0.01-0.063-0.01-0.089s0-0.055,0-0.085s0.003-0.058,0.01-0.084c0.006-0.027,0.013-0.056,0.02-0.09
			c0.006-0.033,0.013-0.066,0.02-0.099l0.377-1.39c0.013-0.046,0.028-0.091,0.044-0.134c0.017-0.043,0.031-0.081,0.045-0.114
			c0.027-0.04,0.051-0.079,0.075-0.119c0.023-0.04,0.048-0.076,0.074-0.109c0.027-0.027,0.056-0.058,0.09-0.094
			c0.033-0.036,0.063-0.068,0.089-0.094c0.026-0.027,0.058-0.055,0.094-0.085c0.037-0.03,0.072-0.055,0.104-0.075
			c0.04-0.026,0.079-0.051,0.119-0.074c0.04-0.023,0.076-0.045,0.11-0.065c0.04-0.02,0.081-0.038,0.124-0.055
			c0.043-0.016,0.085-0.031,0.124-0.044c0.046-0.014,0.096-0.027,0.149-0.04c0.053-0.014,0.105-0.027,0.159-0.04
			c0.106-0.02,0.202-0.03,0.288-0.03H184.036z"/>
	</g>
</g>
</svg>
