<?xml version="1.0" encoding="utf-8"?>
<!-- Generator: Adobe Illustrator 23.0.6, SVG Export Plug-In . SVG Version: 6.00 Build 0)  -->
<svg version="1.1" id="Modo_de_aislamiento" xmlns="http://www.w3.org/2000/svg" xmlns:xlink="http://www.w3.org/1999/xlink"
	 x="0px" y="0px" viewBox="0 0 198.425 198.425" style="enable-background:new 0 0 198.425 198.425;" xml:space="preserve">
<style type="text/css">
	.st0{fill:#DD042A;}
</style>
<g>
	<g>
		<path class="st0" d="M118.139,75.633c-1.932,0-3.863,0.828-5.52,2.208c-9.797,8.28-9.797,8.28-9.797,8.28
			c-1.518,1.242-3.451,2.208-5.796,2.208c-3.174,0-3.174,0-3.174,0c8.142-6.762,8.142-6.762,8.142-6.762
			c-2.347-3.726-2.347-3.726-2.347-3.726c-0.827-1.518-2.483-2.208-4.277-2.208c-21.527,0-21.527,0-21.527,0
			c-1.933,0-3.864,0.828-5.521,2.208c-11.178,9.384-11.178,9.384-11.178,9.384c-1.519,1.241-3.313,2.208-5.658,2.208
			c-3.45,0-3.45,0-3.45,0c16.422-13.8,16.422-13.8,16.422-13.8c-16.836,0-16.836,0-16.836,0c-7.866,27.6-7.866,27.6-7.866,27.6
			c13.248,0,13.248,0,13.248,0c3.588-12.282,3.588-12.282,3.588-12.282c6.21,10.074,6.21,10.074,6.21,10.074
			c0.966,1.656,2.622,2.208,4.278,2.208c12.145,0,12.145,0,12.145,0c-8.557-13.8-8.557-13.8-8.557-13.8
			c13.524-11.316,13.524-11.316,13.524-11.316c10.487,16.836,10.487,16.836,10.487,16.836c-2.346,8.28-2.346,8.28-2.346,8.28
			c13.663,0,13.663,0,13.663,0c2.346-8.28,2.346-8.28,2.346-8.28c21.391-17.94,21.391-17.94,21.391-17.94
			c-7.453,26.22-7.453,26.22-7.453,26.22c3.451,0,3.451,0,3.451,0c2.207,0,4.139-0.966,5.656-2.208
			c11.041-9.246,11.041-9.246,11.041-9.246c1.932-1.656,3.727-2.346,5.658-2.346c1.932,0,3.449,0,3.449,0
			c-16.422,13.8-16.422,13.8-16.422,13.8c13.109,0,13.109,0,13.109,0c6.348,0,12.008-2.484,13.248-7.038
			c1.242-4.14-2.346-6.486-6.209-6.762c-0.139,0-0.139,0,0,0c3.863-0.414,8.279-3.174,9.385-6.9c1.24-4.002-1.381-6.9-5.797-6.9
			c-2.07,0-4.002,0.828-5.797,2.346c-9.797,8.142-9.797,8.142-9.797,8.142c-1.242,1.104-3.174,2.208-5.658,2.208
			c-3.312,0-3.312,0-3.312,0c15.043-12.696,15.043-12.696,15.043-12.696C118.139,75.633,118.139,75.633,118.139,75.633
			L118.139,75.633z"/>
		<g>
			<path d="M29.13,116.757c-0.553,2.347-1.104,4.692-4.003,4.692c-1.379,0-2.346-0.414-2.346-1.794c0-0.966,0.414-1.933,0.552-2.898
				c0.69-2.346,1.242-4.691,4.141-4.691c1.242,0,2.346,0.276,2.346,1.656C29.82,114.688,29.406,115.93,29.13,116.757L29.13,116.757z
				 M27.335,113.031c-0.966,0-1.38,0.69-1.794,1.519c-0.414,0.966-1.242,3.864-1.242,4.829c0,0.69,0.276,0.966,0.966,0.966
				c0.967,0,1.381-0.551,1.795-1.38c0.414-0.966,1.242-4.001,1.242-4.968C28.302,113.445,28.026,113.031,27.335,113.031
				L27.335,113.031z"/>
			<path d="M34.512,120.069c-0.139,0.414-0.276,0.828-0.276,1.242c-1.38,0-1.38,0-1.38,0c0.275-0.828,0.275-0.828,0.275-0.828
				c-0.552,0.552-0.966,0.828-1.794,0.828c-0.69,0-1.242-0.276-1.242-1.105c0-0.275,0-0.413,0.139-0.689
				c1.242-4.554,1.242-4.554,1.242-4.554c1.38,0,1.38,0,1.38,0c-1.242,4.14-1.242,4.14-1.242,4.14
				c-0.138,0.275-0.138,0.552-0.138,0.828c0,0.413,0.138,0.552,0.552,0.552c0.828,0,1.242-0.828,1.518-1.519
				c1.104-4.001,1.104-4.001,1.104-4.001c1.38,0,1.38,0,1.38,0C34.512,120.069,34.512,120.069,34.512,120.069L34.512,120.069z"/>
			<path d="M40.446,116.067c0-0.138-0.138-0.138-0.138-0.138c-1.104,0-1.656,0.689-1.933,1.655
				c-0.966,3.727-0.966,3.727-0.966,3.727c-1.38,0-1.38,0-1.38,0c1.518-5.244,1.518-5.244,1.518-5.244
				c0.139-0.414,0.276-0.69,0.276-1.104c1.242,0,1.242,0,1.242,0c-0.139,0.827-0.139,0.827-0.139,0.827
				c0.414-0.689,0.967-0.966,1.795-0.966h0.138C40.446,116.067,40.446,116.067,40.446,116.067L40.446,116.067z"/>
			<path d="M50.658,114.825c-0.553,2.208-1.656,2.484-3.45,2.484c0,0-0.689,0-0.966,0c-1.105,4.002-1.105,4.002-1.105,4.002
				c-1.38,0-1.38,0-1.38,0c2.484-9.108,2.484-9.108,2.484-9.108c2.347,0,2.347,0,2.347,0c1.104,0,2.207,0.139,2.207,1.519
				C50.795,114.135,50.795,114.411,50.658,114.825L50.658,114.825z M48.174,113.169c-0.828,0-0.828,0-0.828,0
				c-0.828,3.036-0.828,3.036-0.828,3.036c0.689,0,0.689,0,0.689,0c1.242,0,1.794-0.275,2.07-1.518
				c0.139-0.138,0.139-0.414,0.139-0.69C49.416,113.308,48.725,113.169,48.174,113.169L48.174,113.169z"/>
			<path d="M54.798,116.067c0-0.138-0.139-0.138-0.276-0.138c-0.966,0-1.519,0.689-1.794,1.655
				c-1.105,3.727-1.105,3.727-1.105,3.727c-1.242,0-1.242,0-1.242,0c1.519-5.244,1.519-5.244,1.519-5.244
				c0.138-0.414,0.138-0.69,0.275-1.104c1.242,0,1.242,0,1.242,0c-0.275,0.827-0.275,0.827-0.275,0.827
				c0.552-0.689,1.104-0.966,1.932-0.966c0,0,0,0,0.139,0C54.798,116.067,54.798,116.067,54.798,116.067L54.798,116.067z"/>
			<path d="M59.766,118.275c-3.175,0-3.175,0-3.175,0c-0.138,0.414-0.414,1.104-0.414,1.519c0,0.551,0.139,0.689,0.691,0.689
				c0.689,0,1.103-0.689,1.242-1.242c1.242,0,1.242,0,1.242,0c-0.414,1.38-1.242,2.208-2.761,2.208
				c-0.966,0-1.656-0.414-1.656-1.518c0-0.553,0.139-1.104,0.277-1.656c0.551-1.794,1.241-3.45,3.311-3.45
				c0.966,0,1.656,0.276,1.656,1.242C60.18,116.757,59.904,117.585,59.766,118.275L59.766,118.275z M58.248,115.653
				c-0.966,0-1.242,1.104-1.519,1.794c1.933,0,1.933,0,1.933,0c0.138-0.414,0.276-0.69,0.276-1.104
				C58.938,115.93,58.662,115.653,58.248,115.653L58.248,115.653z"/>
			<path d="M65.976,117.033c-1.242,0-1.242,0-1.242,0c0-0.276,0.138-0.552,0.138-0.689c0-0.414-0.276-0.69-0.69-0.69
				c-1.104,0-1.518,1.519-1.655,2.346c-0.139,0.553-0.414,1.242-0.414,1.795c0,0.413,0.139,0.689,0.689,0.689
				c0.828,0,1.104-0.689,1.242-1.38c1.242,0,1.242,0,1.242,0c-0.414,1.518-0.966,2.346-2.622,2.346c-0.966,0-1.932-0.275-1.932-1.38
				c0-0.69,0.276-1.242,0.413-1.794c0.414-1.794,0.967-3.45,3.175-3.45c0.828,0,1.794,0.139,1.794,1.104
				C66.114,116.344,65.976,116.619,65.976,117.033L65.976,117.033z"/>
			<path d="M67.494,121.312h-1.38l1.933-6.348h1.241L67.494,121.312L67.494,121.312z M69.702,113.584h-1.38l0.414-1.242h1.38
				L69.702,113.584L69.702,113.584L69.702,113.584z"/>
			<path d="M67.494,121.312h-1.38l1.933-6.348h1.241L67.494,121.312L67.494,121.312z M69.702,113.584h-1.38l0.414-1.242h1.38
				L69.702,113.584L69.702,113.584"/>
			<path d="M74.393,116.757c-1.241,0-1.241,0-1.241,0c0.138-0.275,0.138-0.413,0.138-0.689c0-0.276-0.275-0.414-0.552-0.414
				c-0.552,0-0.966,0.414-0.966,0.966c0,0.828,2.07,1.242,2.07,2.484c0,1.518-1.242,2.208-2.623,2.208
				c-0.828,0-1.794-0.276-1.794-1.105c0-0.413,0-0.689,0.138-0.966c1.242,0,1.242,0,1.242,0c0,0.276-0.138,0.553-0.138,0.69
				c0,0.413,0.276,0.552,0.69,0.552c0.552,0,1.104-0.552,1.104-1.104c0-0.965-2.07-1.38-2.07-2.622c0-1.38,1.104-1.932,2.484-1.932
				c0.828,0,1.656,0.139,1.656,1.104C74.532,116.205,74.532,116.481,74.393,116.757L74.393,116.757z"/>
			<path d="M76.049,121.312h-1.38l1.932-6.348h1.242L76.049,121.312L76.049,121.312z M78.257,113.584h-1.38l0.414-1.242h1.38
				L78.257,113.584L78.257,113.584L78.257,113.584z"/>
			<path d="M76.049,121.312h-1.38l1.932-6.348h1.242L76.049,121.312L76.049,121.312z M78.257,113.584h-1.38l0.414-1.242h1.38
				L78.257,113.584L78.257,113.584"/>
			<path d="M83.225,117.999c-0.552,1.933-0.828,3.45-3.173,3.45c-0.828,0-1.795-0.414-1.795-1.518c0-0.553,0.139-1.242,0.414-1.794
				c0.553-1.933,0.967-3.312,3.174-3.312c0.828,0,1.794,0.276,1.794,1.38C83.639,116.757,83.501,117.31,83.225,117.999
				L83.225,117.999z M81.708,115.653c-1.105,0-1.381,0.966-1.656,1.932c-0.139,0.553-0.553,1.656-0.553,2.209
				c0,0.413,0.276,0.689,0.69,0.689c0.966,0,1.241-0.828,1.519-1.656c0.413-1.242,0.413-1.242,0.413-1.242
				c0-0.413,0.138-0.828,0.138-1.241C82.259,115.93,82.122,115.653,81.708,115.653L81.708,115.653z"/>
			<path d="M89.849,116.757c-1.38,4.555-1.38,4.555-1.38,4.555c-1.242,0-1.242,0-1.242,0c1.104-4.278,1.104-4.278,1.104-4.278
				c0.138-0.276,0.275-0.552,0.275-0.828c0-0.414-0.275-0.552-0.688-0.552c-0.828,0-1.242,0.966-1.519,1.656
				c-1.104,4.002-1.104,4.002-1.104,4.002c-1.242,0-1.242,0-1.242,0c1.381-5.244,1.381-5.244,1.381-5.244
				c0.138-0.276,0.275-0.69,0.414-1.104c1.242,0,1.242,0,1.242,0c-0.139,0.689-0.139,0.689-0.139,0.689
				c0.414-0.552,0.967-0.828,1.655-0.828c0.828,0,1.381,0.276,1.381,0.966C89.988,116.205,89.849,116.481,89.849,116.757
				L89.849,116.757z"/>
			<path d="M90.677,122.553h-0.966l1.242-2.621h1.38L90.677,122.553L90.677,122.553L90.677,122.553z"/>
			<path d="M100.889,117.723l-0.965,3.589h-1.518l1.104-3.589l-0.828-5.52h1.381l0.412,4.278l3.037-4.278h1.518L100.889,117.723
				L100.889,117.723L100.889,117.723z"/>
			<path d="M108.894,117.999c-0.553,1.933-0.967,3.45-3.176,3.45c-0.965,0-1.932-0.414-1.932-1.518c0-0.553,0.277-1.242,0.414-1.794
				c0.553-1.933,0.967-3.312,3.174-3.312c0.967,0,1.795,0.276,1.795,1.38C109.17,116.757,109.031,117.31,108.894,117.999
				L108.894,117.999z M107.238,115.653c-1.104,0-1.381,0.966-1.656,1.932c-0.139,0.553-0.414,1.656-0.414,2.209
				c0,0.413,0.137,0.689,0.689,0.689c0.967,0,1.104-0.828,1.381-1.656c0.414-1.242,0.414-1.242,0.414-1.242
				c0.137-0.413,0.275-0.828,0.275-1.241C107.928,115.93,107.652,115.653,107.238,115.653L107.238,115.653z"/>
			<path d="M114.414,120.069c-0.139,0.414-0.277,0.828-0.414,1.242c-1.242,0-1.242,0-1.242,0c0.137-0.828,0.137-0.828,0.137-0.828
				c-0.412,0.552-0.965,0.828-1.654,0.828c-0.691,0-1.381-0.276-1.381-1.105c0-0.275,0.139-0.413,0.139-0.689
				c1.379-4.554,1.379-4.554,1.379-4.554c1.242,0,1.242,0,1.242,0c-1.104,4.14-1.104,4.14-1.104,4.14
				c-0.139,0.275-0.275,0.552-0.275,0.828c0,0.413,0.275,0.552,0.69,0.552c0.828,0,1.242-0.828,1.381-1.519
				c1.24-4.001,1.24-4.001,1.24-4.001c1.242,0,1.242,0,1.242,0C114.414,120.069,114.414,120.069,114.414,120.069L114.414,120.069z"
				/>
			<path d="M120.348,116.067c-0.139-0.138-0.139-0.138-0.275-0.138c-0.967,0-1.518,0.689-1.795,1.655
				c-1.104,3.727-1.104,3.727-1.104,3.727c-1.242,0-1.242,0-1.242,0c1.518-5.244,1.518-5.244,1.518-5.244
				c0-0.414,0.139-0.69,0.275-1.104c1.242,0,1.242,0,1.242,0c-0.275,0.827-0.275,0.827-0.275,0.827
				c0.553-0.689,1.104-0.966,1.932-0.966l0,0C120.348,116.067,120.348,116.067,120.348,116.067L120.348,116.067z"/>
			<path d="M128.213,121.312v-2.208h-2.898l-1.104,2.208h-1.518l5.244-9.108h1.656v9.108H128.213L128.213,121.312z M126.006,117.999
				h2.207l0.139-4.691L126.006,117.999L126.006,117.999L126.006,117.999z"/>
			<path d="M128.213,121.312v-2.208h-2.898l-1.104,2.208h-1.518l5.244-9.108h1.656v9.108H128.213L128.213,121.312z M126.006,117.999
				h2.207l0.139-4.691L126.006,117.999L126.006,117.999"/>
			<path d="M135.527,120.069c-0.137,0.414-0.275,0.828-0.414,1.242c-1.242,0-1.242,0-1.242,0c0.277-0.828,0.277-0.828,0.277-0.828
				c-0.553,0.552-0.967,0.828-1.656,0.828c-0.828,0-1.381-0.414-1.381-1.38c0-0.553,0.139-1.242,0.414-1.794
				c0.414-1.794,0.828-3.312,2.623-3.312c0.551,0,1.104,0.139,1.379,0.69c0.967-3.312,0.967-3.312,0.967-3.312
				c1.242,0,1.242,0,1.242,0C135.527,120.069,135.527,120.069,135.527,120.069L135.527,120.069z M134.424,115.653
				c-0.967,0-1.381,1.656-1.656,2.484c-0.139,0.552-0.275,1.104-0.275,1.518c0,0.414,0.137,0.828,0.551,0.828
				c1.105,0,1.519-1.519,1.656-2.346c0.139-0.553,0.414-1.104,0.414-1.656C135.113,115.93,134.975,115.653,134.424,115.653
				L134.424,115.653z"/>
			<path d="M139.668,121.312h-1.518l0.137-6.348h1.242l-0.275,5.105l2.621-5.105h1.242L139.668,121.312L139.668,121.312
				L139.668,121.312z"/>
			<path d="M147.947,116.896c-0.414,1.38-0.828,2.898-1.104,4.416c-1.242,0-1.242,0-1.242,0c0.139-0.828,0.139-0.828,0.139-0.828
				c-0.414,0.552-0.967,0.828-1.795,0.828c-0.689,0-1.242-0.414-1.242-1.242c0-2.07,1.656-2.76,3.588-2.76c0.277,0,0.277,0,0.277,0
				c0.137-0.276,0.275-0.828,0.275-1.104c0-0.414-0.139-0.552-0.553-0.552c-0.689,0-0.965,0.414-1.104,0.966
				c-1.381,0-1.381,0-1.381,0c0.416-1.38,1.242-1.794,2.623-1.794c0.828,0,1.656,0.139,1.656,1.104
				C148.086,116.344,148.086,116.619,147.947,116.896L147.947,116.896z M146.154,118.138c-1.105,0-2.07,0.552-2.07,1.794
				c0,0.275,0.139,0.552,0.551,0.552c1.105,0,1.52-1.519,1.795-2.346C146.154,118.138,146.154,118.138,146.154,118.138
				L146.154,118.138z"/>
			<path d="M154.434,116.757c-1.381,4.555-1.381,4.555-1.381,4.555c-1.242,0-1.242,0-1.242,0c1.106-4.278,1.106-4.278,1.106-4.278
				c0.137-0.276,0.275-0.552,0.275-0.828c0-0.414-0.275-0.552-0.689-0.552c-0.828,0-1.242,0.966-1.52,1.656
				c-1.104,4.002-1.104,4.002-1.104,4.002c-1.242,0-1.242,0-1.242,0c1.381-5.244,1.381-5.244,1.381-5.244
				c0.139-0.276,0.275-0.69,0.275-1.104c1.381,0,1.381,0,1.381,0c-0.139,0.689-0.139,0.689-0.139,0.689
				c0.414-0.552,0.967-0.828,1.656-0.828c0.828,0,1.379,0.276,1.379,0.966C154.57,116.205,154.434,116.481,154.434,116.757
				L154.434,116.757z"/>
			<path d="M159.125,115.791c-1.104,0-1.104,0-1.104,0c-0.967,3.727-0.967,3.727-0.967,3.727c-0.137,0.138-0.137,0.276-0.137,0.414
				c0,0.413,0.275,0.413,0.553,0.413c0.137,0,0.275,0,0.412,0c-0.275,0.967-0.275,0.967-0.275,0.967c-0.275,0-0.553,0-0.828,0
				c-0.551,0-1.242,0-1.242-0.828c0-0.276,0-0.552,0.139-0.828c1.104-3.864,1.104-3.864,1.104-3.864c-0.967,0-0.967,0-0.967,0
				c0.277-0.827,0.277-0.827,0.277-0.827c0.965,0,0.965,0,0.965,0c0.277-1.104,0.277-1.104,0.277-1.104
				c1.518-0.552,1.518-0.552,1.518-0.552c-0.553,1.656-0.553,1.656-0.553,1.656c1.104,0,1.104,0,1.104,0
				C159.125,115.791,159.125,115.791,159.125,115.791L159.125,115.791z"/>
			<path d="M164.369,116.896c-0.414,1.38-0.965,2.898-1.242,4.416c-1.242,0-1.242,0-1.242,0c0.277-0.828,0.277-0.828,0.277-0.828
				c-0.553,0.552-0.967,0.828-1.795,0.828c-0.689,0-1.242-0.414-1.242-1.242c0-2.07,1.656-2.76,3.451-2.76c0.414,0,0.414,0,0.414,0
				c0.137-0.276,0.275-0.828,0.275-1.104c0-0.414-0.275-0.552-0.553-0.552c-0.689,0-1.104,0.414-1.242,0.966c-1.24,0-1.24,0-1.24,0
				c0.275-1.38,1.24-1.794,2.482-1.794c0.828,0,1.795,0.139,1.795,1.104C164.508,116.344,164.508,116.619,164.369,116.896
				L164.369,116.896z M162.437,118.138c-1.103,0-1.932,0.552-1.932,1.794c0,0.275,0.137,0.552,0.553,0.552
				c1.104,0,1.379-1.519,1.654-2.346C162.437,118.138,162.437,118.138,162.437,118.138L162.437,118.138z"/>
			<path d="M169.199,121.587c-0.414,1.519-1.242,2.07-2.76,2.07c-0.828,0-1.793-0.138-1.793-1.104c0-0.275,0-0.413,0-0.689
				c1.379,0,1.379,0,1.379,0c0,0.139,0,0.276,0,0.552c0,0.276,0.139,0.552,0.553,0.552c1.24,0,1.379-1.655,1.656-2.483
				c-0.416,0.414-0.828,0.69-1.52,0.69c-0.965,0-1.379-0.414-1.379-1.38c0-0.553,0.137-1.104,0.275-1.656
				c0.414-1.656,0.967-3.312,2.76-3.312c0.553,0,1.104,0.139,1.242,0.828c0.277-0.689,0.277-0.689,0.277-0.689c1.24,0,1.24,0,1.24,0
				C170.441,117.172,169.891,119.379,169.199,121.587L169.199,121.587z M168.648,115.653c-1.105,0-1.52,1.656-1.795,2.484
				c-0.139,0.552-0.275,0.966-0.275,1.38c0,0.552,0.137,0.827,0.689,0.827c0.967,0,1.381-1.518,1.656-2.346
				c0.137-0.414,0.275-0.966,0.275-1.518C169.199,116.067,169.06,115.653,168.648,115.653L168.648,115.653z"/>
			<path d="M176.375,118.275c-3.174,0-3.174,0-3.174,0c-0.139,0.414-0.414,1.104-0.414,1.519c0,0.551,0.275,0.689,0.691,0.689
				c0.826,0,1.104-0.689,1.379-1.242c1.242,0,1.242,0,1.242,0c-0.553,1.38-1.242,2.208-2.898,2.208
				c-0.965,0-1.656-0.414-1.656-1.518c0-0.553,0.139-1.104,0.414-1.656c0.414-1.794,1.103-3.45,3.312-3.45
				c0.967,0,1.518,0.276,1.518,1.242C176.789,116.757,176.514,117.585,176.375,118.275L176.375,118.275z M174.996,115.653
				c-0.967,0-1.381,1.104-1.518,1.794c1.793,0,1.793,0,1.793,0c0.139-0.414,0.275-0.69,0.275-1.104
				C175.547,115.93,175.41,115.653,174.996,115.653L174.996,115.653z"/>
		</g>
	</g>
</g>
</svg>
